<svg width="80" height="80" viewBox="0 0 80 80" fill="none" xmlns="http://www.w3.org/2000/svg">
<g clip-path="url(#clip0_631_704)">
<path d="M79.5437 70.0341L42.9181 6.5968C41.6214 4.35055 38.3789 4.35055 37.0819 6.5968L0.456557 70.0341C-0.840475 72.2804 0.780619 75.0884 3.37437 75.0884H76.6253C79.2192 75.0884 80.8403 72.2806 79.5437 70.0341ZM43.2867 66.1934C43.2867 66.6121 41.8152 66.9516 40.0003 66.9516C38.1848 66.9516 36.7133 66.6121 36.7133 66.1934V60.9346C36.7133 60.5159 38.1848 60.1763 40.0003 60.1763C41.8152 60.1763 43.2867 60.516 43.2867 60.9346V66.1934ZM42.7389 53.9237C42.7402 53.9393 42.7492 53.9541 42.7492 53.9706C42.7492 54.6493 41.5181 55.1996 40.0002 55.1996C38.4812 55.1996 37.2508 54.6493 37.2508 53.9706C37.2508 53.9546 37.2595 53.9396 37.2611 53.9237L35.5523 31.9705C35.5523 31.2918 37.5436 30.7415 40 30.7415C42.4564 30.7415 44.4473 31.2918 44.4473 31.9705L42.7389 53.9237Z" fill="white"/>
</g>
<defs>
<clipPath id="clip0_631_704">
<rect width="80" height="80" fill="white"/>
</clipPath>
</defs>
</svg>
