<svg width="148" height="97" viewBox="0 0 148 97" fill="none" xmlns="http://www.w3.org/2000/svg">
<rect x="1.5" y="1.5" width="125" height="74" stroke="white" stroke-width="3"/>
<g clip-path="url(#clip0_803_3)">
<path fill-rule="evenodd" clip-rule="evenodd" d="M61.75 26.9999C59.1641 26.9999 56.6842 28.0271 54.8557 29.8556C53.0272 31.6841 52 34.164 52 36.7499C52 39.3358 53.0272 41.8157 54.8557 43.6442C56.6842 45.4727 59.1641 46.4999 61.75 46.4999C64.3359 46.4999 66.8158 45.4727 68.6443 43.6442C70.4728 41.8157 71.5 39.3358 71.5 36.7499C71.5 34.164 70.4728 31.6841 68.6443 29.8556C66.8158 28.0271 64.3359 26.9999 61.75 26.9999ZM49 36.7499C49.0002 34.7168 49.4865 32.7132 50.4185 30.9063C51.3505 29.0994 52.7011 27.5415 54.3576 26.3627C56.0141 25.184 57.9285 24.4184 59.9411 24.13C61.9536 23.8415 64.006 24.0385 65.9269 24.7046C67.8478 25.3706 69.5816 26.4864 70.9836 27.9587C72.3856 29.4311 73.4152 31.2174 73.9864 33.1687C74.5576 35.1199 74.654 37.1794 74.2674 39.1754C73.8808 41.1714 73.0224 43.0461 71.764 44.6429L77.242 50.1209C77.5152 50.4038 77.6664 50.7827 77.663 51.176C77.6596 51.5693 77.5018 51.9455 77.2237 52.2236C76.9456 52.5017 76.5694 52.6595 76.1761 52.6629C75.7828 52.6663 75.4039 52.5151 75.121 52.2419L69.643 46.7639C67.7629 48.2459 65.5036 49.1686 63.1236 49.4265C60.7436 49.6844 58.339 49.2671 56.1851 48.2222C54.0312 47.1774 52.215 45.5472 50.9443 43.5183C49.6737 41.4895 48.9998 39.1438 49 36.7499ZM60.25 31.4999C60.25 31.1021 60.408 30.7205 60.6893 30.4392C60.9706 30.1579 61.3522 29.9999 61.75 29.9999C63.5402 29.9999 65.2571 30.7111 66.523 31.9769C67.7888 33.2428 68.5 34.9597 68.5 36.7499C68.5 37.1477 68.342 37.5292 68.0607 37.8106C67.7794 38.0919 67.3978 38.2499 67 38.2499C66.6022 38.2499 66.2206 38.0919 65.9393 37.8106C65.658 37.5292 65.5 37.1477 65.5 36.7499C65.5 35.7553 65.1049 34.8015 64.4017 34.0982C63.6984 33.395 62.7446 32.9999 61.75 32.9999C61.3522 32.9999 60.9706 32.8419 60.6893 32.5606C60.408 32.2792 60.25 31.8977 60.25 31.4999Z" fill="#E95383"/>
</g>
<defs>
<clipPath id="clip0_803_3">
<rect width="36" height="36" fill="white" transform="translate(46 21)"/>
</clipPath>
</defs>
</svg>
