<svg width="78" height="169" viewBox="0 0 78 169" fill="none" xmlns="http://www.w3.org/2000/svg">
<rect x="1.5" y="1.5" width="75" height="166" fill="#080304" stroke="white" stroke-width="3"/>
<g clip-path="url(#clip0_803_4)">
<path fill-rule="evenodd" clip-rule="evenodd" d="M36.75 72.9999C34.1641 72.9999 31.6842 74.0271 29.8557 75.8556C28.0272 77.6841 27 80.164 27 82.7499C27 85.3358 28.0272 87.8157 29.8557 89.6442C31.6842 91.4727 34.1641 92.4999 36.75 92.4999C39.3359 92.4999 41.8158 91.4727 43.6443 89.6442C45.4728 87.8157 46.5 85.3358 46.5 82.7499C46.5 80.164 45.4728 77.6841 43.6443 75.8556C41.8158 74.0271 39.3359 72.9999 36.75 72.9999ZM24 82.7499C24.0002 80.7168 24.4865 78.7132 25.4185 76.9063C26.3505 75.0994 27.7011 73.5415 29.3576 72.3627C31.0141 71.184 32.9285 70.4184 34.9411 70.13C36.9536 69.8415 39.006 70.0385 40.9269 70.7046C42.8478 71.3706 44.5816 72.4864 45.9836 73.9587C47.3856 75.4311 48.4152 77.2174 48.9864 79.1687C49.5576 81.1199 49.654 83.1794 49.2674 85.1754C48.8808 87.1714 48.0224 89.0461 46.764 90.6429L52.242 96.1209C52.5152 96.4038 52.6664 96.7827 52.663 97.176C52.6596 97.5693 52.5018 97.9455 52.2237 98.2236C51.9456 98.5017 51.5694 98.6595 51.1761 98.6629C50.7828 98.6663 50.4039 98.5151 50.121 98.2419L44.643 92.7639C42.7629 94.2459 40.5036 95.1686 38.1236 95.4265C35.7436 95.6844 33.339 95.2671 31.1851 94.2222C29.0312 93.1774 27.215 91.5472 25.9443 89.5183C24.6737 87.4895 23.9998 85.1438 24 82.7499ZM35.25 77.4999C35.25 77.1021 35.408 76.7205 35.6893 76.4392C35.9706 76.1579 36.3522 75.9999 36.75 75.9999C38.5402 75.9999 40.2571 76.7111 41.523 77.9769C42.7888 79.2428 43.5 80.9597 43.5 82.7499C43.5 83.1477 43.342 83.5292 43.0607 83.8106C42.7794 84.0919 42.3978 84.2499 42 84.2499C41.6022 84.2499 41.2206 84.0919 40.9393 83.8106C40.658 83.5292 40.5 83.1477 40.5 82.7499C40.5 81.7553 40.1049 80.8015 39.4017 80.0982C38.6984 79.395 37.7446 78.9999 36.75 78.9999C36.3522 78.9999 35.9706 78.8419 35.6893 78.5606C35.408 78.2792 35.25 77.8977 35.25 77.4999Z" fill="#E95383"/>
</g>
<defs>
<clipPath id="clip0_803_4">
<rect width="36" height="36" fill="white" transform="translate(21 67)"/>
</clipPath>
</defs>
</svg>
