<svg width="128" height="62" viewBox="0 0 128 62" fill="none" xmlns="http://www.w3.org/2000/svg">
<rect x="1.5" y="1.5" width="125" height="59" fill="#080304" stroke="white" stroke-width="3"/>
<g clip-path="url(#clip0_803_5)">
<path fill-rule="evenodd" clip-rule="evenodd" d="M61.75 19.9999C59.1641 19.9999 56.6842 21.0271 54.8557 22.8556C53.0272 24.6841 52 27.164 52 29.7499C52 32.3358 53.0272 34.8157 54.8557 36.6442C56.6842 38.4727 59.1641 39.4999 61.75 39.4999C64.3359 39.4999 66.8158 38.4727 68.6443 36.6442C70.4728 34.8157 71.5 32.3358 71.5 29.7499C71.5 27.164 70.4728 24.6841 68.6443 22.8556C66.8158 21.0271 64.3359 19.9999 61.75 19.9999ZM49 29.7499C49.0002 27.7168 49.4865 25.7132 50.4185 23.9063C51.3505 22.0994 52.7011 20.5415 54.3576 19.3627C56.0141 18.184 57.9285 17.4184 59.9411 17.13C61.9536 16.8415 64.006 17.0385 65.9269 17.7046C67.8478 18.3706 69.5816 19.4864 70.9836 20.9587C72.3856 22.4311 73.4152 24.2174 73.9864 26.1687C74.5576 28.1199 74.654 30.1794 74.2674 32.1754C73.8808 34.1714 73.0224 36.0461 71.764 37.6429L77.242 43.1209C77.5152 43.4038 77.6664 43.7827 77.663 44.176C77.6596 44.5693 77.5018 44.9455 77.2237 45.2236C76.9456 45.5017 76.5694 45.6595 76.1761 45.6629C75.7828 45.6663 75.4039 45.5151 75.121 45.2419L69.643 39.7639C67.7629 41.2459 65.5036 42.1686 63.1236 42.4265C60.7436 42.6844 58.339 42.2671 56.1851 41.2222C54.0312 40.1774 52.215 38.5472 50.9443 36.5183C49.6737 34.4895 48.9998 32.1438 49 29.7499ZM60.25 24.4999C60.25 24.1021 60.408 23.7205 60.6893 23.4392C60.9706 23.1579 61.3522 22.9999 61.75 22.9999C63.5402 22.9999 65.2571 23.7111 66.523 24.9769C67.7888 26.2428 68.5 27.9597 68.5 29.7499C68.5 30.1477 68.342 30.5292 68.0607 30.8106C67.7794 31.0919 67.3978 31.2499 67 31.2499C66.6022 31.2499 66.2206 31.0919 65.9393 30.8106C65.658 30.5292 65.5 30.1477 65.5 29.7499C65.5 28.7553 65.1049 27.8015 64.4017 27.0982C63.6984 26.395 62.7446 25.9999 61.75 25.9999C61.3522 25.9999 60.9706 25.8419 60.6893 25.5606C60.408 25.2792 60.25 24.8977 60.25 24.4999Z" fill="#E95383"/>
</g>
<defs>
<clipPath id="clip0_803_5">
<rect width="36" height="36" fill="white" transform="translate(46 14)"/>
</clipPath>
</defs>
</svg>
