<svg width="505" height="337" viewBox="0 0 505 337" fill="none" xmlns="http://www.w3.org/2000/svg">
<path d="M41.52 324.576C41.52 324.4 41.504 324.272 41.488 324.16C41.456 324.048 41.392 323.968 41.312 323.904C41.216 323.856 41.088 323.808 40.928 323.792C40.752 323.776 40.544 323.76 40.272 323.76C40 323.76 39.776 323.776 39.616 323.792C39.44 323.808 39.312 323.856 39.232 323.904C39.136 323.968 39.072 324.048 39.056 324.16C39.024 324.272 39.008 324.4 39.008 324.576C39.008 324.752 39.024 324.896 39.056 325.008C39.072 325.12 39.136 325.2 39.232 325.248C39.312 325.312 39.44 325.36 39.616 325.376C39.776 325.392 40 325.408 40.272 325.408C40.544 325.408 40.752 325.392 40.928 325.376C41.088 325.36 41.216 325.312 41.312 325.248C41.392 325.2 41.456 325.12 41.488 325.008C41.504 324.896 41.52 324.752 41.52 324.576ZM39.008 326.72C39.008 326.912 39.024 327.056 39.056 327.168C39.072 327.28 39.136 327.376 39.232 327.424C39.312 327.488 39.44 327.536 39.616 327.552C39.776 327.568 40 327.584 40.272 327.584C40.544 327.584 40.752 327.568 40.928 327.552C41.088 327.536 41.216 327.488 41.312 327.424C41.392 327.376 41.456 327.28 41.488 327.168C41.504 327.056 41.52 326.912 41.52 326.72C41.52 326.544 41.504 326.384 41.488 326.272C41.456 326.16 41.392 326.08 41.312 326.016C41.216 325.968 41.088 325.92 40.928 325.904C40.752 325.888 40.544 325.872 40.272 325.872C40 325.872 39.776 325.888 39.616 325.904C39.44 325.92 39.312 325.968 39.232 326.016C39.136 326.08 39.072 326.16 39.056 326.272C39.024 326.384 39.008 326.544 39.008 326.72ZM40.832 329.712C40.608 329.424 40.464 329.248 40.416 329.168C40.368 329.088 40.352 329.04 40.384 329.008C40.4 329.008 40.464 328.992 40.608 328.944C40.736 328.912 40.896 328.896 41.104 328.88C41.312 328.88 41.536 328.912 41.776 328.976C42.016 329.04 42.24 329.168 42.464 329.344C42.672 329.52 42.88 329.792 43.056 330.128C43.232 330.464 43.344 330.912 43.424 331.472C43.472 331.776 43.424 331.968 43.312 332.064C43.184 332.16 43.04 332.192 42.864 332.16C42.688 332.128 42.528 332.048 42.352 331.92C42.176 331.808 42.064 331.68 42 331.536C41.92 331.376 41.84 331.264 41.76 331.184C41.68 331.12 41.568 331.088 41.424 331.104C41.28 331.12 41.088 331.184 40.864 331.296C40.624 331.408 40.336 331.552 39.984 331.744C39.52 331.984 39.136 332.192 38.864 332.352C38.576 332.496 38.352 332.624 38.192 332.72C38.016 332.816 37.904 332.896 37.824 332.96C37.744 333.008 37.696 333.056 37.648 333.104C37.568 333.184 37.472 333.168 37.392 333.072C37.312 332.976 37.168 332.736 36.976 332.336C36.784 331.936 36.688 331.68 36.704 331.568C36.704 331.456 36.816 331.392 37.04 331.36C37.184 331.328 37.296 331.264 37.376 331.152C37.456 331.04 37.52 330.848 37.568 330.544C37.616 330.24 37.648 329.824 37.664 329.28C37.68 328.752 37.68 328.032 37.68 327.152C37.68 326.272 37.68 325.568 37.664 325.04C37.648 324.512 37.632 324.128 37.584 323.872C37.536 323.632 37.472 323.488 37.392 323.456C37.312 323.424 37.2 323.456 37.056 323.552C36.784 323.76 36.608 323.872 36.528 323.904C36.432 323.936 36.368 323.936 36.336 323.904C36.32 323.888 36.336 323.856 36.384 323.808C36.432 323.76 36.544 323.632 36.688 323.456C36.832 323.28 37.024 323.008 37.264 322.656C37.504 322.304 37.808 321.824 38.176 321.216C38.512 320.656 38.768 320.192 38.976 319.84C39.184 319.488 39.36 319.216 39.504 319.04C39.648 318.864 39.792 318.768 39.936 318.752C40.08 318.736 40.256 318.752 40.464 318.832C40.896 319.008 41.152 319.12 41.264 319.2C41.376 319.28 41.376 319.36 41.28 319.424C41.232 319.44 41.248 319.456 41.328 319.44C41.408 319.44 41.536 319.44 41.68 319.456C41.824 319.472 42 319.504 42.176 319.552C42.352 319.6 42.528 319.696 42.672 319.84C42.816 319.984 42.912 320.16 42.992 320.4C43.056 320.64 43.056 320.96 42.992 321.36C42.944 321.632 42.864 321.792 42.72 321.84C42.576 321.888 42.432 321.872 42.272 321.776C42.096 321.696 41.936 321.552 41.76 321.376C41.584 321.2 41.456 321.008 41.344 320.816C41.2 320.576 41.072 320.4 40.96 320.304C40.848 320.208 40.72 320.176 40.592 320.224C40.448 320.272 40.304 320.384 40.128 320.56C39.952 320.736 39.728 320.992 39.456 321.312C39.152 321.648 38.928 321.92 38.752 322.128C38.576 322.336 38.448 322.512 38.384 322.624C38.304 322.736 38.288 322.832 38.32 322.88C38.336 322.944 38.416 323.008 38.544 323.056C38.784 323.168 38.944 323.232 39.04 323.248C39.136 323.28 39.248 323.296 39.376 323.296C39.488 323.296 39.568 323.248 39.6 323.136C39.632 323.024 39.648 322.768 39.648 322.352C39.648 322.144 39.664 321.984 39.68 321.856C39.696 321.744 39.744 321.648 39.808 321.584C39.856 321.52 39.952 321.488 40.064 321.472C40.176 321.456 40.32 321.472 40.512 321.488C40.88 321.52 41.104 321.552 41.216 321.6C41.312 321.648 41.328 321.712 41.248 321.776C41.184 321.824 41.136 321.872 41.104 321.904C41.056 321.936 41.024 321.984 41.008 322.032C40.976 322.08 40.96 322.16 40.944 322.24C40.928 322.32 40.928 322.448 40.928 322.592C40.928 322.896 40.944 323.088 40.992 323.168C41.024 323.248 41.104 323.296 41.248 323.296C41.376 323.296 41.472 323.28 41.552 323.232C41.632 323.2 41.728 323.104 41.856 322.944C41.984 322.8 42.096 322.736 42.208 322.752C42.32 322.784 42.512 322.912 42.784 323.136C43.056 323.376 43.216 323.536 43.264 323.632C43.312 323.728 43.264 323.808 43.152 323.856C43.072 323.888 43.024 323.936 42.976 324C42.928 324.08 42.896 324.192 42.88 324.336C42.848 324.496 42.832 324.72 42.816 324.992C42.8 325.28 42.8 325.664 42.8 326.128C42.8 326.592 42.8 326.976 42.8 327.264C42.784 327.568 42.768 327.792 42.752 327.952C42.736 328.128 42.704 328.24 42.656 328.32C42.608 328.4 42.528 328.448 42.448 328.464C42.352 328.496 42.24 328.528 42.128 328.544C42.016 328.576 41.888 328.592 41.76 328.592H41.648C41.6 328.592 41.568 328.576 41.552 328.544C41.536 328.512 41.52 328.432 41.52 328.304C41.52 328.256 41.504 328.208 41.488 328.16C41.456 328.128 41.392 328.096 41.312 328.08C41.216 328.064 41.088 328.048 40.928 328.032C40.752 328.032 40.544 328.032 40.272 328.032C40 328.032 39.776 328.048 39.616 328.08C39.44 328.112 39.312 328.176 39.232 328.288C39.136 328.4 39.072 328.544 39.056 328.736C39.024 328.928 39.008 329.184 39.008 329.488C39.008 329.808 39.024 330.064 39.056 330.24C39.072 330.432 39.136 330.576 39.216 330.656C39.296 330.752 39.408 330.8 39.552 330.8C39.696 330.8 39.904 330.768 40.144 330.72C40.672 330.608 40.992 330.496 41.072 330.368C41.152 330.256 41.072 330.032 40.832 329.712ZM45.632 330.048C45.632 330.368 45.648 330.624 45.696 330.816C45.744 331.008 45.824 331.152 45.952 331.264C46.064 331.376 46.24 331.44 46.48 331.472C46.704 331.504 47.008 331.52 47.392 331.52C47.76 331.52 48.064 331.504 48.304 331.472C48.528 331.44 48.704 331.376 48.832 331.264C48.944 331.152 49.024 331.008 49.072 330.816C49.12 330.624 49.136 330.368 49.136 330.048C49.136 329.728 49.12 329.472 49.072 329.28C49.024 329.088 48.944 328.944 48.832 328.832C48.704 328.72 48.528 328.656 48.304 328.624C48.064 328.592 47.76 328.576 47.392 328.576C47.008 328.576 46.704 328.592 46.48 328.624C46.24 328.656 46.064 328.72 45.952 328.832C45.824 328.944 45.744 329.088 45.696 329.28C45.648 329.472 45.632 329.728 45.632 330.048ZM44.64 321.76C44.576 322 44.56 322.16 44.592 322.24C44.624 322.336 44.784 322.448 45.072 322.576C45.216 322.64 45.344 322.688 45.456 322.72C45.568 322.768 45.712 322.8 45.856 322.816C46 322.832 46.16 322.848 46.368 322.848C46.576 322.864 46.832 322.864 47.136 322.864C47.44 322.864 47.68 322.864 47.888 322.848C48.08 322.832 48.24 322.816 48.368 322.784C48.48 322.768 48.592 322.72 48.672 322.672C48.752 322.624 48.816 322.56 48.896 322.48C49.04 322.32 49.152 322.224 49.2 322.192C49.248 322.16 49.28 322.16 49.328 322.176C49.376 322.208 49.408 322.192 49.44 322.144C49.456 322.096 49.488 321.936 49.536 321.68C49.568 321.536 49.568 321.424 49.52 321.344C49.472 321.264 49.376 321.216 49.2 321.168C49.024 321.12 48.784 321.088 48.464 321.072C48.144 321.056 47.712 321.056 47.184 321.056C46.656 321.056 46.224 321.056 45.904 321.072C45.584 321.088 45.344 321.136 45.168 321.184C44.992 321.232 44.88 321.312 44.8 321.392C44.72 321.488 44.672 321.616 44.64 321.76ZM45.632 324.64C45.632 324.928 45.648 325.152 45.696 325.328C45.728 325.504 45.792 325.648 45.904 325.728C46.016 325.824 46.16 325.888 46.368 325.92C46.576 325.952 46.832 325.968 47.168 325.968C47.504 325.968 47.76 325.952 47.968 325.92C48.176 325.888 48.32 325.824 48.432 325.728C48.544 325.648 48.608 325.504 48.656 325.328C48.688 325.152 48.704 324.928 48.704 324.64C48.704 324.368 48.688 324.128 48.656 323.952C48.608 323.776 48.544 323.648 48.432 323.552C48.32 323.472 48.176 323.408 47.968 323.376C47.76 323.344 47.504 323.328 47.168 323.328C46.832 323.328 46.576 323.344 46.368 323.376C46.16 323.408 46.016 323.472 45.904 323.552C45.792 323.648 45.728 323.776 45.696 323.952C45.648 324.128 45.632 324.368 45.632 324.64ZM47.312 328.128C47.664 328.128 47.952 328.128 48.192 328.112C48.416 328.096 48.608 328.08 48.752 328.064C48.896 328.048 49.008 328 49.088 327.952C49.168 327.904 49.248 327.84 49.328 327.76C49.472 327.6 49.616 327.536 49.744 327.552C49.872 327.568 50.096 327.712 50.416 327.952C50.736 328.192 50.928 328.368 50.992 328.448C51.056 328.544 51.04 328.624 50.928 328.672C50.848 328.704 50.8 328.752 50.752 328.816C50.704 328.88 50.672 328.976 50.656 329.12C50.624 329.264 50.608 329.472 50.592 329.728C50.576 329.984 50.576 330.32 50.576 330.752C50.576 331.184 50.576 331.52 50.576 331.792C50.56 332.064 50.544 332.272 50.528 332.432C50.496 332.592 50.448 332.72 50.4 332.8C50.336 332.88 50.256 332.928 50.144 332.976C50.032 333.024 49.904 333.056 49.76 333.088C49.616 333.12 49.488 333.136 49.376 333.136H49.264C49.216 333.136 49.184 333.104 49.168 333.04C49.152 332.976 49.136 332.816 49.136 332.56C49.136 332.432 49.12 332.336 49.072 332.256C49.024 332.176 48.944 332.128 48.832 332.08C48.704 332.032 48.528 332.016 48.304 332C48.064 331.984 47.76 331.984 47.392 331.984C47.008 331.984 46.704 331.984 46.48 332C46.24 332.016 46.064 332.032 45.952 332.064C45.824 332.096 45.744 332.144 45.696 332.208C45.648 332.256 45.632 332.336 45.632 332.432V332.88C45.632 332.96 45.52 333.072 45.296 333.184C45.056 333.296 44.784 333.36 44.48 333.36H44.368C44.352 333.36 44.336 333.296 44.32 333.184C44.304 333.056 44.288 332.8 44.272 332.416C44.256 332.016 44.256 331.472 44.256 330.752C44.256 330.048 44.256 329.104 44.256 327.92C44.256 326.752 44.256 325.808 44.24 325.12C44.224 324.432 44.192 323.92 44.144 323.552C44.096 323.2 44.048 322.976 43.968 322.864C43.888 322.768 43.76 322.72 43.616 322.704C43.328 322.688 43.136 322.592 43.04 322.4C42.944 322.224 42.944 322.016 43.056 321.776C43.104 321.664 43.168 321.568 43.248 321.488C43.328 321.408 43.408 321.344 43.488 321.264C43.568 321.184 43.648 321.104 43.744 321.008C43.824 320.912 43.92 320.768 44 320.592C44.096 320.384 44.16 320.224 44.208 320.096C44.24 319.968 44.272 319.872 44.288 319.792C44.304 319.728 44.304 319.68 44.32 319.648C44.32 319.616 44.336 319.6 44.368 319.6C44.416 319.616 44.464 319.648 44.512 319.696C44.544 319.76 44.576 319.904 44.624 320.128C44.672 320.336 44.736 320.464 44.848 320.512C44.944 320.56 45.168 320.592 45.536 320.592C45.712 320.592 45.84 320.576 45.952 320.56C46.064 320.544 46.144 320.496 46.208 320.416C46.256 320.336 46.304 320.24 46.32 320.096C46.336 319.968 46.352 319.792 46.352 319.568C46.352 319.344 46.368 319.168 46.384 319.024C46.4 318.896 46.448 318.8 46.528 318.736C46.608 318.672 46.704 318.64 46.848 318.624C46.976 318.608 47.152 318.608 47.376 318.624C47.824 318.672 48.112 318.72 48.24 318.768C48.352 318.832 48.368 318.896 48.256 318.976C48.192 319.04 48.144 319.088 48.096 319.12C48.048 319.168 48 319.216 47.968 319.264C47.936 319.312 47.92 319.392 47.904 319.472C47.888 319.568 47.872 319.696 47.872 319.856C47.872 320.176 47.92 320.384 48.016 320.464C48.112 320.544 48.336 320.592 48.704 320.592C48.88 320.592 49.04 320.592 49.152 320.576C49.264 320.56 49.376 320.544 49.456 320.512C49.536 320.496 49.616 320.448 49.696 320.4C49.776 320.352 49.856 320.272 49.936 320.192C50.112 320.016 50.256 319.952 50.384 319.984C50.512 320.016 50.736 320.176 51.04 320.464C51.344 320.768 51.536 320.96 51.6 321.072C51.648 321.184 51.632 321.248 51.52 321.28C51.44 321.296 51.36 321.328 51.296 321.344C51.232 321.376 51.168 321.408 51.088 321.456C51.008 321.504 50.928 321.552 50.832 321.616C50.72 321.696 50.592 321.792 50.432 321.904C50.112 322.144 49.936 322.32 49.904 322.416C49.856 322.512 49.952 322.656 50.192 322.832C50.432 323.008 50.56 323.136 50.608 323.216C50.656 323.296 50.624 323.36 50.512 323.408C50.432 323.456 50.368 323.504 50.32 323.552C50.272 323.6 50.224 323.696 50.208 323.808C50.176 323.936 50.16 324.112 50.144 324.32C50.128 324.528 50.128 324.816 50.128 325.152C50.128 325.504 50.128 325.792 50.128 326.016C50.112 326.24 50.096 326.416 50.064 326.56C50.032 326.704 49.984 326.8 49.936 326.864C49.872 326.928 49.792 326.976 49.696 327.008C49.584 327.056 49.456 327.088 49.312 327.104C49.168 327.136 49.04 327.152 48.928 327.152H48.816C48.768 327.152 48.736 327.136 48.72 327.088C48.704 327.04 48.704 326.944 48.704 326.784C48.704 326.704 48.688 326.64 48.656 326.592C48.608 326.544 48.544 326.496 48.432 326.48C48.32 326.464 48.176 326.448 47.968 326.432C47.76 326.416 47.504 326.416 47.168 326.416C46.832 326.416 46.576 326.432 46.368 326.448C46.16 326.464 46.016 326.512 45.904 326.56C45.792 326.624 45.728 326.704 45.696 326.816C45.648 326.928 45.632 327.088 45.632 327.264C45.632 327.456 45.648 327.6 45.696 327.712C45.728 327.824 45.808 327.92 45.92 327.968C46.032 328.032 46.208 328.08 46.432 328.096C46.656 328.112 46.944 328.128 47.312 328.128ZM65.152 321.056C65.312 320.864 65.456 320.784 65.6 320.8C65.744 320.832 65.984 320.976 66.336 321.248C66.672 321.52 66.88 321.712 66.96 321.808C67.04 321.92 67.008 322 66.896 322.064C66.816 322.112 66.736 322.192 66.688 322.32C66.64 322.448 66.592 322.672 66.56 323.008C66.528 323.344 66.512 323.808 66.496 324.4C66.48 324.992 66.48 325.792 66.48 326.784V331.36C66.48 331.632 66.464 331.888 66.416 332.112C66.368 332.336 66.256 332.528 66.096 332.704C65.792 333.008 65.52 333.216 65.28 333.312C65.04 333.392 64.848 333.424 64.672 333.376C64.496 333.328 64.368 333.232 64.256 333.104C64.144 332.96 64.064 332.832 64.016 332.704C63.936 332.496 63.84 332.352 63.696 332.24C63.52 332.096 63.312 331.984 63.072 331.904C62.848 331.824 62.672 331.76 62.528 331.712C62.384 331.68 62.272 331.648 62.192 331.632C62.112 331.616 62.048 331.6 62.032 331.584C62 331.568 61.984 331.552 61.984 331.536C61.984 331.488 62.048 331.456 62.176 331.456C62.304 331.456 62.608 331.472 63.088 331.488C63.376 331.504 63.664 331.52 63.936 331.536C64.208 331.552 64.416 331.568 64.528 331.568C64.672 331.568 64.784 331.536 64.848 331.472C64.896 331.408 64.928 331.312 64.928 331.2V326.56C64.928 325.568 64.912 324.768 64.864 324.16C64.816 323.552 64.704 323.088 64.56 322.752C64.4 322.416 64.176 322.208 63.904 322.096C63.616 321.984 63.232 321.936 62.768 321.936C62.304 321.936 61.92 321.952 61.648 321.968C61.36 322 61.136 322.048 60.976 322.128C60.816 322.208 60.704 322.32 60.64 322.464C60.56 322.608 60.512 322.816 60.464 323.056C60.432 323.2 60.48 323.312 60.608 323.392C60.736 323.472 60.912 323.568 61.12 323.648C61.328 323.744 61.568 323.856 61.84 324C62.112 324.144 62.384 324.368 62.656 324.64C62.928 324.912 63.168 325.28 63.408 325.728C63.632 326.192 63.808 326.768 63.952 327.488C64.016 327.824 63.984 328.048 63.872 328.128C63.744 328.208 63.568 328.192 63.344 328.08C63.104 327.968 62.848 327.776 62.544 327.472C62.24 327.184 61.952 326.832 61.664 326.416C61.36 325.984 61.12 325.68 60.928 325.504C60.736 325.328 60.544 325.28 60.336 325.344C60.128 325.424 59.904 325.6 59.648 325.872C59.392 326.16 59.056 326.528 58.624 326.992C58.096 327.552 57.648 327.984 57.28 328.256C56.912 328.528 56.608 328.72 56.368 328.832C56.128 328.944 55.936 328.976 55.824 328.96C55.696 328.944 55.632 328.928 55.616 328.896C55.6 328.864 55.648 328.832 55.776 328.784C55.888 328.752 56.064 328.64 56.304 328.432C56.528 328.24 56.8 327.936 57.12 327.52C57.44 327.104 57.792 326.496 58.16 325.712C58.528 324.96 58.752 324.336 58.848 323.84C58.944 323.344 58.928 322.96 58.816 322.672C58.704 322.4 58.496 322.208 58.208 322.096C57.904 321.984 57.552 321.936 57.136 321.936C56.704 321.936 56.368 322 56.112 322.112C55.856 322.24 55.664 322.496 55.52 322.88C55.376 323.264 55.296 323.808 55.248 324.528C55.2 325.248 55.184 326.176 55.184 327.344V332.768C55.184 332.816 55.152 332.88 55.088 332.944C55.008 333.008 54.912 333.072 54.8 333.12C54.688 333.168 54.544 333.216 54.4 333.264C54.24 333.312 54.08 333.328 53.904 333.328H53.776C53.744 333.328 53.728 333.264 53.712 333.12C53.696 332.976 53.68 332.672 53.68 332.24C53.664 331.792 53.664 331.152 53.664 330.32C53.648 329.504 53.648 328.416 53.648 327.056C53.648 325.696 53.664 324.608 53.68 323.792C53.696 322.976 53.744 322.368 53.808 321.936C53.856 321.52 53.936 321.264 54.048 321.168C54.16 321.072 54.304 321.056 54.496 321.136C54.672 321.216 54.848 321.264 54.992 321.312C55.136 321.36 55.312 321.408 55.52 321.424C55.712 321.44 55.936 321.456 56.208 321.472C56.48 321.488 56.816 321.488 57.216 321.488C57.616 321.488 57.952 321.472 58.208 321.44C58.448 321.408 58.656 321.344 58.8 321.232C58.944 321.136 59.04 320.992 59.088 320.8C59.136 320.608 59.152 320.352 59.168 320.048C59.184 319.712 59.2 319.456 59.232 319.248C59.248 319.04 59.312 318.896 59.392 318.784C59.472 318.688 59.568 318.624 59.712 318.608C59.856 318.592 60.032 318.576 60.272 318.592C60.736 318.64 61.04 318.688 61.168 318.736C61.28 318.8 61.296 318.88 61.184 318.976C61.104 319.04 61.04 319.104 60.992 319.152C60.944 319.2 60.896 319.28 60.864 319.36C60.816 319.456 60.784 319.584 60.768 319.728C60.752 319.872 60.736 320.08 60.72 320.352C60.704 320.592 60.72 320.8 60.768 320.944C60.8 321.088 60.88 321.2 61.024 321.28C61.168 321.36 61.36 321.424 61.632 321.44C61.904 321.472 62.256 321.488 62.704 321.488C63.152 321.488 63.52 321.488 63.792 321.472C64.064 321.456 64.304 321.44 64.48 321.408C64.656 321.376 64.784 321.328 64.88 321.28C64.976 321.232 65.072 321.152 65.152 321.056ZM69.248 323.008C69.2 322.736 69.184 322.544 69.2 322.464C69.216 322.384 69.264 322.336 69.312 322.304C69.36 322.288 69.424 322.304 69.504 322.384C69.568 322.464 69.744 322.624 70.016 322.848C70.112 322.928 70.208 322.976 70.32 323.024C70.432 323.072 70.544 323.104 70.688 323.104C70.896 323.104 71.168 323.088 71.488 323.072C71.808 323.056 72.176 323.024 72.576 322.992C72.976 322.96 73.392 322.928 73.84 322.88C74.288 322.832 74.736 322.8 75.2 322.752C76.144 322.656 76.912 322.576 77.504 322.512C78.08 322.464 78.544 322.4 78.896 322.352C79.232 322.304 79.488 322.256 79.664 322.208C79.84 322.16 79.968 322.112 80.064 322.032C80.144 321.984 80.224 321.952 80.304 321.904C80.384 321.856 80.464 321.84 80.544 321.84C80.704 321.84 80.912 321.904 81.152 322.032C81.392 322.176 81.616 322.336 81.84 322.528C82.048 322.72 82.24 322.928 82.4 323.136C82.56 323.344 82.64 323.536 82.64 323.696C82.64 323.84 82.608 323.936 82.528 324C82.448 324.064 82.352 324.112 82.24 324.16C82.112 324.208 81.968 324.256 81.824 324.304C81.68 324.352 81.52 324.448 81.376 324.56C81.136 324.768 80.848 324.992 80.544 325.248C80.224 325.52 79.872 325.792 79.504 326.096C78.976 326.528 78.56 326.864 78.272 327.136C77.984 327.408 77.792 327.632 77.696 327.84C77.6 328.048 77.584 328.256 77.664 328.448C77.728 328.656 77.856 328.912 78.032 329.216C78.304 329.664 78.432 330.112 78.432 330.56C78.432 330.832 78.352 331.04 78.192 331.184C78.032 331.328 77.84 331.408 77.6 331.408C77.424 331.408 77.28 331.344 77.168 331.2C77.056 331.072 76.912 330.88 76.768 330.624C76.496 330.128 76.256 329.728 76.048 329.392C75.84 329.072 75.632 328.784 75.424 328.528C75.216 328.288 75.008 328.048 74.8 327.84C74.576 327.632 74.32 327.376 74.032 327.104C73.792 326.88 73.584 326.704 73.44 326.56C73.28 326.416 73.168 326.32 73.088 326.24C73.008 326.16 72.944 326.112 72.928 326.064C72.912 326.032 72.912 326 72.928 325.968C72.944 325.952 72.976 325.92 73.04 325.904C73.088 325.888 73.184 325.904 73.312 325.936C73.44 325.984 73.616 326.048 73.856 326.128C74.08 326.224 74.368 326.352 74.736 326.528C75.104 326.72 75.424 326.864 75.712 326.944C75.984 327.024 76.272 327.04 76.544 326.976C76.816 326.912 77.104 326.752 77.424 326.512C77.728 326.272 78.112 325.904 78.544 325.424C78.864 325.072 79.152 324.736 79.408 324.416C79.648 324.096 79.856 323.808 80 323.552C80.064 323.44 80.08 323.344 80.048 323.28C80.016 323.232 79.936 323.2 79.824 323.216C79.376 323.248 78.8 323.312 78.096 323.392C77.376 323.488 76.64 323.6 75.872 323.712C75.088 323.824 74.432 323.936 73.936 324.016C73.44 324.096 73.04 324.176 72.736 324.24C72.432 324.32 72.208 324.384 72.048 324.448C71.888 324.512 71.744 324.576 71.632 324.656C71.52 324.72 71.424 324.768 71.328 324.816C71.232 324.864 71.136 324.88 71.04 324.88C70.896 324.88 70.752 324.832 70.592 324.736C70.416 324.656 70.256 324.544 70.096 324.4C69.936 324.256 69.792 324.112 69.68 323.936C69.552 323.776 69.456 323.632 69.392 323.488C69.344 323.36 69.296 323.2 69.248 323.008ZM91.296 326.416C91.2 326.176 91.12 325.984 91.072 325.808C91.008 325.648 90.944 325.504 90.896 325.36C90.848 325.232 90.784 325.104 90.736 324.976C90.688 324.864 90.608 324.72 90.512 324.56C90.336 324.256 90.224 324.064 90.176 323.984C90.128 323.904 90.112 323.856 90.144 323.808C90.176 323.776 90.24 323.76 90.336 323.776C90.416 323.792 90.608 323.888 90.896 324.032C91.12 324.144 91.328 324.272 91.504 324.416C91.84 324.624 92.096 324.88 92.304 325.168C92.496 325.456 92.592 325.792 92.592 326.16C92.592 326.4 92.512 326.576 92.368 326.688C92.224 326.8 92.048 326.864 91.872 326.864C91.712 326.864 91.6 326.816 91.52 326.736C91.44 326.656 91.36 326.56 91.296 326.416ZM96.208 326.048C95.888 326.736 95.488 327.408 95.008 328.08C94.512 328.752 93.936 329.392 93.28 330C92.368 330.832 91.584 331.44 90.96 331.84C90.336 332.24 89.824 332.496 89.424 332.64C89.024 332.784 88.72 332.832 88.544 332.8C88.368 332.768 88.256 332.736 88.24 332.704C88.224 332.672 88.304 332.64 88.48 332.608C88.656 332.56 88.944 332.416 89.344 332.176C89.744 331.92 90.24 331.504 90.864 330.944C91.488 330.384 92.224 329.552 93.104 328.448C93.712 327.696 94.176 326.976 94.512 326.32C94.848 325.664 95.008 325.136 95.008 324.768C95.008 324.64 94.944 324.512 94.8 324.384C94.56 324.176 94.416 324.048 94.336 324.016C94.256 323.984 94.208 323.936 94.224 323.888C94.224 323.84 94.256 323.808 94.304 323.792C94.352 323.776 94.464 323.76 94.64 323.744C94.736 323.728 94.832 323.728 94.928 323.712C95.024 323.696 95.136 323.712 95.248 323.728C95.36 323.744 95.504 323.792 95.648 323.872C95.792 323.952 95.968 324.08 96.176 324.256C96.352 324.4 96.48 324.56 96.592 324.72C96.688 324.88 96.736 325.024 96.736 325.152C96.736 325.296 96.672 325.44 96.544 325.568C96.4 325.712 96.288 325.872 96.208 326.048ZM88.592 327.376C88.48 327.136 88.384 326.928 88.32 326.752C88.24 326.592 88.176 326.432 88.128 326.288C88.08 326.144 88.016 326.016 87.952 325.872C87.888 325.744 87.808 325.6 87.712 325.424C87.536 325.136 87.424 324.944 87.376 324.864C87.328 324.784 87.312 324.736 87.36 324.688C87.392 324.656 87.456 324.64 87.552 324.656C87.648 324.672 87.84 324.768 88.112 324.928C88.288 325.04 88.464 325.168 88.624 325.28C89.024 325.536 89.344 325.824 89.568 326.128C89.776 326.448 89.888 326.784 89.888 327.12C89.888 327.328 89.824 327.488 89.712 327.632C89.6 327.776 89.424 327.84 89.184 327.84C89.04 327.84 88.912 327.792 88.832 327.712C88.736 327.632 88.656 327.52 88.592 327.376ZM114.144 322.064C113.904 322.064 113.68 322.016 113.472 321.92C113.264 321.84 113.072 321.712 112.912 321.552C112.752 321.408 112.624 321.216 112.544 321.008C112.448 320.8 112.4 320.56 112.4 320.32C112.4 320.08 112.448 319.84 112.544 319.632C112.624 319.424 112.752 319.248 112.912 319.088C113.072 318.944 113.264 318.816 113.472 318.72C113.68 318.64 113.904 318.592 114.144 318.592C114.384 318.592 114.624 318.64 114.832 318.72C115.04 318.816 115.216 318.944 115.376 319.088C115.52 319.248 115.648 319.424 115.744 319.632C115.824 319.84 115.872 320.08 115.872 320.32C115.872 320.56 115.824 320.8 115.744 321.008C115.648 321.216 115.52 321.408 115.376 321.552C115.216 321.712 115.04 321.84 114.832 321.92C114.624 322.016 114.384 322.064 114.144 322.064ZM114.144 319.2C113.84 319.2 113.568 319.312 113.344 319.52C113.12 319.744 113.008 320.016 113.008 320.32C113.008 320.64 113.12 320.912 113.344 321.12C113.568 321.344 113.84 321.456 114.144 321.456C114.448 321.456 114.72 321.344 114.944 321.12C115.168 320.912 115.28 320.64 115.28 320.32C115.28 320.016 115.168 319.744 114.944 319.52C114.72 319.312 114.448 319.2 114.144 319.2ZM102.4 321.408C102.448 321.392 102.512 321.424 102.576 321.504C102.64 321.584 102.816 321.744 103.104 321.952C103.216 322.032 103.328 322.096 103.44 322.144C103.552 322.192 103.696 322.224 103.84 322.224C103.984 322.224 104.16 322.208 104.4 322.192C104.64 322.176 104.896 322.16 105.2 322.144C105.504 322.128 105.824 322.096 106.16 322.064C106.496 322.032 106.832 322 107.168 321.968C107.84 321.888 108.384 321.824 108.816 321.776C109.248 321.728 109.584 321.696 109.856 321.648C110.112 321.6 110.304 321.552 110.448 321.504C110.592 321.456 110.72 321.408 110.832 321.344C110.896 321.296 110.96 321.264 111.024 321.232C111.072 321.216 111.152 321.2 111.248 321.2C111.408 321.2 111.6 321.264 111.84 321.392C112.08 321.536 112.304 321.696 112.528 321.888C112.752 322.08 112.944 322.272 113.104 322.464C113.264 322.672 113.344 322.832 113.344 322.96C113.344 323.072 113.312 323.184 113.264 323.264C113.2 323.344 113.12 323.424 113.04 323.504C112.928 323.616 112.832 323.808 112.768 324.08C112.688 324.352 112.544 324.704 112.304 325.168C112.064 325.632 111.696 326.192 111.184 326.864C110.656 327.552 109.904 328.352 108.896 329.28C107.792 330.304 106.848 331.056 106.08 331.552C105.296 332.048 104.672 332.368 104.192 332.544C103.696 332.72 103.344 332.784 103.12 332.736C102.896 332.688 102.768 332.656 102.752 332.624C102.72 332.576 102.8 332.544 102.992 332.512C103.184 332.464 103.504 332.32 103.952 332.064C104.384 331.792 104.96 331.36 105.664 330.768C106.352 330.176 107.2 329.296 108.192 328.144C109.04 327.152 109.68 326.32 110.096 325.632C110.496 324.944 110.784 324.384 110.928 323.952C111.072 323.52 111.136 323.216 111.12 323.008C111.088 322.8 111.056 322.688 111.04 322.656C111.008 322.624 110.96 322.608 110.88 322.608C110.768 322.608 110.608 322.624 110.416 322.64C110.208 322.656 109.984 322.688 109.728 322.72C109.472 322.752 109.2 322.784 108.896 322.832C108.592 322.88 108.304 322.944 108 322.992C107.376 323.104 106.864 323.184 106.464 323.248C106.064 323.328 105.744 323.392 105.504 323.44C105.264 323.504 105.072 323.552 104.928 323.6C104.784 323.648 104.64 323.712 104.528 323.776C104.432 323.824 104.336 323.856 104.256 323.888C104.16 323.92 104.064 323.936 103.984 323.936C103.824 323.936 103.664 323.888 103.488 323.776C103.312 323.68 103.152 323.552 103.008 323.408C102.832 323.232 102.704 323.088 102.624 322.96C102.528 322.848 102.464 322.736 102.416 322.624C102.368 322.512 102.352 322.416 102.336 322.32C102.32 322.224 102.304 322.128 102.288 322.032C102.272 321.792 102.272 321.632 102.288 321.552C102.304 321.488 102.336 321.44 102.4 321.408Z" fill="white"/>
<g clip-path="url(#clip0_634_3)">
<path d="M503.931 1.04004H1.03931V335.93H503.931V1.04004Z" fill="#080304"/>
<path d="M502.892 2.11015V334.89H2.10813V2.11015H502.892ZM505 0H0V337H505V0Z" fill="white"/>
<path d="M325.067 1.04004H1.03931V335.93H325.067V1.04004Z" fill="#E95383"/>
<path d="M324.028 2.11015V334.89H2.10813V2.11015H324.058M326.136 0H0V337H326.136V0Z" fill="white"/>
<path d="M63.125 314.858C40.4998 314.858 22.0908 296.431 22.0908 273.784V1.04004H482.909V273.784C482.909 296.431 464.5 314.858 441.875 314.858H63.125Z" fill="#080304"/>
<path d="M481.84 2.11015V273.814C481.84 295.867 463.906 313.818 441.875 313.818H63.1249C41.0936 313.818 23.1596 295.867 23.1596 273.814V2.11015H481.87M483.948 0H21.0515V273.814C21.0515 297.085 39.9059 315.928 63.1249 315.928H441.875C465.124 315.928 483.948 297.056 483.948 273.814V0Z" fill="white"/>
<path d="M269.335 168.485H223.046C218.384 168.485 214.643 164.711 214.643 160.074V33.7031H277.768V160.074C277.768 164.741 273.997 168.485 269.365 168.485H269.335Z" fill="#E95383"/>
<path d="M100.982 69.5161H67.3412C63.8484 69.5161 61.0168 72.3504 61.0168 75.8466V181.116C61.0168 184.613 63.8484 187.447 67.3412 187.447H100.982C104.475 187.447 107.307 184.613 107.307 181.116V75.8466C107.307 72.3504 104.475 69.5161 100.982 69.5161Z" fill="#080304"/>
<path d="M101.012 71.5963C103.328 71.5963 105.228 73.4985 105.228 75.8166V181.116C105.228 183.434 103.328 185.336 101.012 185.336H67.3413C65.0253 185.336 63.125 183.434 63.125 181.116V75.8166C63.125 73.4985 65.0253 71.5963 67.3413 71.5963H101.012ZM101.012 67.4058H67.3413C62.6797 67.4058 58.9385 71.1803 58.9385 75.8166V181.116C58.9385 185.782 62.7093 189.527 67.3413 189.527H101.012C105.674 189.527 109.415 185.753 109.415 181.116V75.8166C109.415 71.1505 105.644 67.4058 101.012 67.4058Z" fill="#0099D9"/>
<path d="M129.427 22.1118H59.9778V57.9249H129.427V22.1118Z" fill="#080304"/>
<path d="M128.358 23.1819V56.8849H61.0169V23.1819H128.358ZM130.466 21.0718H58.9385V58.9951H130.466V21.0718Z" fill="white"/>
<path d="M386.114 22.1118H295.642V167.445H386.114V22.1118Z" fill="#080304"/>
<path d="M385.074 23.1819V166.405H296.711V23.1819H385.074ZM387.153 21.0718H294.573V168.515H387.153V21.0718Z" fill="white"/>
<path d="M457.642 89.5181H417.676V167.445H457.642V89.5181Z" fill="#080304"/>
<path d="M456.602 90.5584V166.375H418.715V90.5584H456.602ZM458.71 88.4482H416.637V168.485H458.71V88.4482Z" fill="white"/>
<path d="M457.641 22.1118H434.511V78.967H457.641V22.1118Z" fill="#080304"/>
<path d="M456.602 23.1819V77.9567H435.551V23.1819H456.602ZM458.71 21.0718H433.472V80.0371H458.71V21.0718Z" fill="white"/>
<path d="M67.3413 216.93H138.869C142.343 216.93 145.194 219.753 145.194 223.26V273.815C145.194 277.292 142.373 280.145 138.869 280.145H67.3413C63.8674 280.145 61.0466 277.322 61.0466 273.844V223.29C61.0466 219.813 63.8674 216.959 67.371 216.959L67.3413 216.93Z" fill="#080304"/>
<path d="M138.869 219.04C141.185 219.04 143.085 220.942 143.085 223.26V273.814C143.085 276.133 141.185 278.035 138.869 278.035H67.3413C65.0253 278.035 63.125 276.133 63.125 273.814V223.26C63.125 220.942 65.0253 219.04 67.3413 219.04H138.869ZM138.869 214.819H67.3413C62.6797 214.819 58.9385 218.594 58.9385 223.23V273.785C58.9385 278.451 62.7093 282.196 67.3413 282.196H138.869C143.531 282.196 147.272 278.421 147.272 273.785V223.23C147.272 218.564 143.501 214.819 138.869 214.819Z" fill="#0099D9"/>
<path d="M395.585 288.555C382.818 288.555 372.455 278.153 372.455 265.403V206.438C372.455 202.961 375.276 200.137 378.78 200.137H450.308C453.781 200.137 456.632 202.961 456.632 206.438V265.403C456.632 278.183 446.24 288.555 433.502 288.555H395.615H395.585Z" fill="#080304"/>
<path d="M450.278 202.188C452.594 202.188 454.494 204.09 454.494 206.408V265.374C454.494 276.994 445.052 286.445 433.442 286.445H395.556C383.946 286.445 374.504 276.994 374.504 265.374V206.408C374.504 204.09 376.404 202.188 378.72 202.188H450.248M450.278 197.968H378.75C374.088 197.968 370.347 201.742 370.347 206.379V265.344C370.347 279.313 381.66 290.606 395.585 290.606H433.472C447.427 290.606 458.71 279.283 458.71 265.344V206.379C458.71 201.713 454.939 197.968 450.307 197.968H450.278Z" fill="#0099D9"/>
<path d="M360.875 199.038H312.478V272.744H360.875V199.038Z" fill="#080304"/>
<path d="M359.807 200.078V271.674H313.517V200.078H359.807ZM361.915 197.968H311.409V273.785H361.915V197.968Z" fill="white"/>
<path d="M188.306 22.1118H144.125V78.967H188.306V22.1118Z" fill="#080304"/>
<path d="M187.267 23.1819V77.9567H145.193V23.1819H187.267ZM189.375 21.0718H143.085V80.0371H189.375V21.0718Z" fill="white"/>
<path d="M147.302 187.447C143.828 187.447 140.977 184.623 140.977 181.116V132.672H138.869C135.395 132.672 132.574 129.849 132.574 126.371V96.8886C132.574 93.4113 135.395 90.5879 138.869 90.5879H180.943C184.417 90.5879 187.237 93.4113 187.237 96.8886V181.146C187.237 184.623 184.417 187.477 180.943 187.477H147.272L147.302 187.447Z" fill="#080304"/>
<path d="M180.943 92.6685C183.259 92.6685 185.159 94.5706 185.159 96.8888V181.146C185.159 183.464 183.259 185.367 180.943 185.367H147.272C144.956 185.367 143.056 183.464 143.056 181.146V130.592H138.839C136.523 130.592 134.623 128.69 134.623 126.371V96.8888C134.623 94.5706 136.523 92.6685 138.839 92.6685H180.913M180.943 88.4482H138.869C134.207 88.4482 130.466 92.2227 130.466 96.8591V126.342C130.466 131.008 134.237 134.753 138.869 134.753V181.087C138.869 185.753 142.64 189.498 147.272 189.498H180.943C185.604 189.498 189.345 185.723 189.345 181.087V96.8293C189.345 92.1632 185.574 88.4185 180.943 88.4185V88.4482Z" fill="#0099D9"/>
<path d="M277.768 181.116H227.262V189.527H277.768V181.116Z" fill="#E95383"/>
<path d="M189.375 288.556C185.901 288.556 183.08 285.732 183.08 282.225V223.26C183.08 219.783 185.901 216.93 189.375 216.93H210.427C213.901 216.93 216.751 219.753 216.751 223.26V233.781H218.859C226.995 233.781 233.586 240.409 233.586 248.523V282.225C233.586 285.703 230.766 288.556 227.262 288.556H189.375Z" fill="#080304"/>
<path d="M210.427 219.04C212.743 219.04 214.643 220.942 214.643 223.26V235.891H218.859C225.807 235.891 231.478 241.568 231.478 248.522V282.225C231.478 284.543 229.578 286.446 227.262 286.446H189.375C187.059 286.446 185.159 284.543 185.159 282.225V223.26C185.159 220.942 187.059 219.04 189.375 219.04H210.427ZM210.427 214.819H189.375C184.713 214.819 180.972 218.594 180.972 223.23V282.196C180.972 286.862 184.743 290.606 189.375 290.606H227.262C231.923 290.606 235.665 286.832 235.665 282.196V248.493C235.665 239.19 228.123 231.641 218.829 231.641V223.23C218.829 218.564 215.058 214.819 210.427 214.819Z" fill="#0099D9"/>
<path d="M283.023 314.858V205.339H59.9775V199.038H278.807V188.517H245.136V137.962H236.734V108.48H226.223V89.5181H243.058V131.632H268.296V182.186H369.308V188.517H301.967V314.888H283.023V314.858ZM251.431 182.186H261.942V137.962H251.431V182.186Z" fill="#080304"/>
<path d="M241.989 90.5584V132.672H267.227V183.227H368.239V187.447H300.898V313.818H284.062V204.298H61.0168V200.078H279.846V187.447H246.176V136.893H237.773V107.41H227.262V90.5584H241.989ZM250.392 183.227H263.011V136.893H250.392V183.227ZM244.067 88.4482H225.124V109.52H235.635V139.003H244.038V189.557H277.708V197.968H58.9087V206.379H281.954V315.899H303.006V189.527H370.347V181.117H269.335V130.562H244.097V88.4482H244.067ZM252.5 181.117V139.003H260.903V181.117H252.5Z" fill="white"/>
<path d="M215.682 75.4007V34.7432H365.062V74.7766H235.219L225.154 84.8518L215.682 75.4007Z" fill="#E95383"/>
<path d="M364.023 35.8133V73.7365H234.804L234.18 74.3607L232.339 76.2033L225.154 83.3957L221.591 79.8292L216.751 74.9848V35.843H364.053M366.131 33.7031H214.643V75.817C218.74 79.9184 221.056 82.2366 225.154 86.338C229.251 82.2366 231.567 79.9184 235.665 75.817H366.131V33.7031Z" fill="#080304"/>
<path d="M242.88 58.4005C242.88 58.4005 243.028 58.5194 243.058 58.6382C243.088 58.7571 243.117 58.9652 243.147 59.1732C243.147 59.411 243.147 59.7082 243.177 60.1243C243.177 60.5106 243.177 60.8673 243.117 61.1348C243.088 61.4022 242.998 61.6697 242.85 61.848C242.702 62.0561 242.464 62.2344 242.197 62.383C241.9 62.5316 241.514 62.6802 241.009 62.7991C240.207 63.0071 239.376 63.126 238.485 63.126C237.327 63.126 236.229 62.9477 235.249 62.5911C234.269 62.2344 233.408 61.6994 232.695 60.9862C231.953 60.3026 231.389 59.4407 231.003 58.4302C230.587 57.39 230.379 56.2309 230.379 54.9529C230.379 53.6749 230.587 52.4564 231.033 51.4459C231.478 50.4354 232.072 49.5735 232.814 48.8899C233.556 48.2064 234.418 47.6714 235.427 47.3148C236.437 46.9581 237.476 46.7798 238.604 46.7798C239.435 46.7798 240.207 46.8987 240.92 47.077C241.395 47.1959 241.781 47.3148 242.048 47.4634C242.316 47.612 242.553 47.7903 242.702 47.9983C242.85 48.2064 242.939 48.4738 242.969 48.7413C242.969 49.0088 242.998 49.3655 242.998 49.7518C242.998 50.1382 242.998 50.4948 242.998 50.7326C242.998 50.9704 242.939 51.1487 242.88 51.2676C242.85 51.3865 242.761 51.4756 242.702 51.5053C242.612 51.5351 242.523 51.5648 242.375 51.5648C242.226 51.5648 242.137 51.5648 242.048 51.5053C241.959 51.4756 241.87 51.3865 241.811 51.2676C241.722 51.1487 241.633 50.9406 241.573 50.7326C241.484 50.4948 241.395 50.1976 241.306 49.7815C241.187 49.3952 241.128 49.098 241.039 48.8305C240.95 48.563 240.861 48.355 240.801 48.2064C240.682 48.0578 240.593 47.9389 240.475 47.8794C240.326 47.82 240.148 47.7606 239.94 47.7011C239.614 47.6417 239.317 47.612 238.96 47.612C238.188 47.612 237.476 47.7606 236.793 48.0578C236.11 48.3847 235.546 48.8008 235.071 49.4249C234.596 50.049 234.18 50.8218 233.913 51.7134C233.646 52.6347 233.497 53.7046 233.497 54.9529C233.497 56.2012 233.646 57.2711 233.913 58.1627C234.18 59.084 234.566 59.8568 235.041 60.4512C235.516 61.0753 236.08 61.5211 236.763 61.8183C237.446 62.1155 238.159 62.2641 238.96 62.2641C239.317 62.2641 239.673 62.2344 240 62.1453C240.237 62.1155 240.415 62.0264 240.564 61.9669C240.712 61.9075 240.831 61.7886 240.95 61.64C241.068 61.4914 241.128 61.2834 241.217 61.0159C241.306 60.7781 241.395 60.4809 241.484 60.0648C241.603 59.6785 241.662 59.3812 241.751 59.1435C241.811 58.9057 241.9 58.7571 241.989 58.6085C242.048 58.4896 242.137 58.4005 242.226 58.3708C242.316 58.341 242.405 58.3113 242.553 58.3113C242.702 58.3113 242.791 58.3113 242.88 58.3708V58.4005Z" fill="#080304"/>
<path d="M251.075 60.778C251.104 61.0455 251.193 61.2535 251.312 61.4021C251.431 61.5507 251.579 61.6696 251.787 61.7291C251.965 61.7885 252.262 61.8479 252.589 61.9074C253.242 61.9965 253.628 62.056 253.836 62.1154C254.014 62.1749 254.074 62.264 254.074 62.4126C254.074 62.5018 254.044 62.5612 253.925 62.591C253.806 62.6207 253.598 62.6504 253.302 62.6801C253.005 62.7098 252.53 62.7098 251.936 62.7098C251.312 62.7098 250.54 62.7098 249.59 62.7098C248.64 62.7098 247.838 62.7098 247.244 62.7098C246.621 62.7098 246.205 62.7098 245.879 62.6801C245.552 62.6801 245.344 62.6504 245.255 62.591C245.136 62.5612 245.077 62.4721 245.077 62.4126C245.077 62.3532 245.077 62.2938 245.136 62.2343C245.136 62.2046 245.255 62.1451 245.344 62.1154C245.463 62.1154 245.611 62.056 245.819 61.9965C245.997 61.9965 246.294 61.9371 246.621 61.8777C246.947 61.8479 247.244 61.7588 247.452 61.6993C247.63 61.6399 247.809 61.521 247.927 61.3724C248.046 61.2238 248.105 61.0158 248.165 60.7483C248.195 60.5105 248.224 60.1539 248.224 59.7378C248.224 59.0839 248.224 58.4301 248.224 57.7762V53.1993C248.224 52.2185 248.224 51.4458 248.195 50.8217C248.195 50.2273 248.105 49.7814 248.016 49.4545C247.927 49.1276 247.779 48.9493 247.601 48.8304C247.423 48.7412 247.185 48.7115 246.888 48.7412C246.294 48.8007 245.908 48.8304 245.76 48.8007C245.582 48.8007 245.522 48.6818 245.522 48.4737C245.522 48.3846 245.552 48.2954 245.641 48.236C245.7 48.1765 245.819 48.1171 245.997 48.0577C246.175 47.9982 246.443 47.9091 246.799 47.8199C247.155 47.7307 247.63 47.6416 248.195 47.493C248.759 47.3444 249.234 47.2552 249.59 47.166C249.946 47.1066 250.214 47.0472 250.421 46.9877C250.6 46.9877 250.748 46.958 250.837 46.958C250.926 46.958 250.986 46.958 251.015 46.958C251.015 46.958 251.075 47.0174 251.104 47.0769C251.134 47.1363 251.104 47.2255 251.134 47.3444V47.8793C251.134 48.1171 251.134 48.4143 251.134 48.771V50.465L251.104 57.7465C251.104 58.4004 251.104 59.0542 251.104 59.7081C251.104 60.1242 251.104 60.4511 251.164 60.7186L251.075 60.778Z" fill="#080304"/>
<path d="M261.972 47.2852C262.595 47.6121 263.159 48.0579 263.634 48.7117C264.109 49.3656 264.495 50.1978 264.792 51.2083C265.06 52.2485 265.208 53.467 265.208 54.8936C265.208 56.3202 265.06 57.5982 264.792 58.6086C264.495 59.6489 264.109 60.5108 263.634 61.1646C263.159 61.8185 262.595 62.294 261.972 62.6209C261.348 62.9478 260.695 63.0964 260.012 63.0964C259.329 63.0964 258.676 62.9478 258.052 62.6209C257.429 62.294 256.865 61.8185 256.389 61.1646C255.914 60.5108 255.499 59.6489 255.232 58.6086C254.935 57.5684 254.786 56.3499 254.786 54.8936C254.786 53.4373 254.935 52.2485 255.232 51.2083C255.499 50.1978 255.914 49.3656 256.389 48.7117C256.865 48.0579 257.429 47.5824 258.052 47.2852C258.676 46.988 259.299 46.8394 260.012 46.8394C260.725 46.8394 261.348 46.988 261.972 47.2852ZM257.726 58.5195C257.874 59.4705 258.052 60.2136 258.29 60.7782C258.527 61.3429 258.765 61.7293 259.091 61.9671C259.388 62.2048 259.715 62.294 260.042 62.294C260.368 62.294 260.665 62.1751 260.992 61.9671C261.289 61.7293 261.556 61.3429 261.793 60.7782C262.031 60.2136 262.179 59.4408 262.328 58.5195C262.476 57.5684 262.536 56.3499 262.536 54.8936C262.536 53.4373 262.476 52.2782 262.328 51.3271C262.179 50.3761 262.001 49.6331 261.793 49.0684C261.556 48.5334 261.289 48.1471 260.992 47.9093C260.665 47.7012 260.368 47.5824 260.042 47.5824C259.715 47.5824 259.388 47.7012 259.091 47.9093C258.765 48.1471 258.527 48.5334 258.29 49.0684C258.052 49.6034 257.874 50.3464 257.726 51.2974C257.577 52.2485 257.518 53.4076 257.518 54.8639C257.518 56.3202 257.577 57.5387 257.726 58.4898V58.5195Z" fill="#080304"/>
<path d="M270.315 47.8201C270.315 47.8201 270.137 48.2064 270.077 48.5631L269.84 49.4547C269.751 49.9302 269.602 50.2869 269.365 50.4949C269.127 50.7029 268.801 50.8218 268.444 50.8218C268.207 50.8218 267.969 50.7624 267.791 50.6435C267.643 50.5543 267.554 50.4057 267.435 50.2274C267.316 50.0491 267.286 49.7816 267.316 49.5141C267.316 49.2466 267.465 48.9494 267.702 48.6225C267.94 48.2956 268.326 47.9687 268.83 47.612C269.246 47.3445 269.721 47.1365 270.256 46.9879C270.79 46.869 271.354 46.8096 271.948 46.8096C273.492 46.8096 274.65 47.1365 275.422 47.8498C276.194 48.5334 276.61 49.4547 276.61 50.5543C276.61 51.5351 276.313 52.3376 275.719 53.0211C275.244 53.5561 274.917 53.883 274.709 54.0614C274.502 54.2397 274.412 54.3586 274.472 54.4477C274.472 54.5666 274.65 54.6855 274.947 54.8935C275.244 55.1016 275.63 55.4285 276.135 56.0229C276.461 56.3795 276.699 56.7956 276.847 57.2712C276.996 57.7467 277.085 58.2519 277.085 58.7572C277.085 59.411 276.966 60.0054 276.699 60.5107C276.432 61.0457 276.075 61.4915 275.6 61.8778C275.125 62.2642 274.561 62.5614 273.878 62.7694C273.195 62.9775 272.423 63.0964 271.592 63.0964C270.167 63.0964 269.038 62.7992 268.237 62.2048C267.702 61.8184 267.346 61.4617 267.108 61.1051C266.871 60.7485 266.782 60.4215 266.752 60.1243C266.752 59.8271 266.752 59.5894 266.871 59.3813C266.989 59.1733 267.108 59.0247 267.257 58.9058C267.465 58.7869 267.702 58.7275 267.94 58.7275C268.326 58.7275 268.623 58.8463 268.86 59.0544C269.068 59.2922 269.246 59.738 269.335 60.3621L269.513 61.2537C269.602 61.6401 269.691 61.9076 269.751 62.0264C269.81 62.1453 269.959 62.2048 270.196 62.2345C270.374 62.2345 270.523 62.2642 270.731 62.2642C271.859 62.2642 272.69 61.9373 273.284 61.3131C273.878 60.689 274.175 59.8271 274.175 58.6977C274.175 57.5089 273.878 56.5876 273.314 55.9337C272.75 55.3096 271.889 54.9827 270.76 54.9827H270.285C270.107 54.9827 269.959 54.9827 269.899 54.8935C269.84 54.8638 269.81 54.7152 269.81 54.5369C269.81 54.3586 269.81 54.2397 269.87 54.1802C269.899 54.1505 270.018 54.1208 270.196 54.1208H270.582C271.562 54.1208 272.334 53.8236 272.928 53.2292C273.522 52.6645 273.819 51.7729 273.819 50.6138C273.819 49.6033 273.581 48.8603 273.136 48.3253C272.661 47.7903 272.007 47.5526 271.146 47.5526C270.998 47.5526 270.849 47.5526 270.701 47.5526C270.493 47.5526 270.345 47.6417 270.285 47.7309L270.315 47.8201Z" fill="#080304"/>
<path d="M291.693 49.0684C292.02 49.0684 292.287 49.0387 292.495 48.9495C292.673 48.9198 292.851 48.8306 293 48.7415C293.119 48.6226 293.267 48.5037 293.356 48.3551C293.594 48.0579 293.801 47.8796 293.95 47.8796C294.098 47.8796 294.306 47.9985 294.603 48.266C295.138 48.7415 295.494 49.0387 295.642 49.2467C295.791 49.4548 295.791 49.5737 295.642 49.6331C295.553 49.6628 295.464 49.6925 295.316 49.6925H291.753C290.981 49.6925 290.357 49.6925 289.912 49.6925C289.437 49.6925 289.08 49.6925 288.813 49.6628C288.576 49.6628 288.397 49.6331 288.279 49.5737C288.16 49.5737 288.13 49.4845 288.101 49.4251C288.101 49.3656 288.101 49.3062 288.13 49.2467C288.16 49.2467 288.279 49.1873 288.457 49.1576C288.605 49.1576 288.843 49.1576 289.169 49.1279H290.417C290.921 49.1279 291.337 49.1279 291.664 49.1279L291.693 49.0684ZM293.594 56.3796C293.772 56.3796 294.069 56.5877 294.514 56.9146C294.959 57.2713 295.197 57.509 295.316 57.6279C295.405 57.7468 295.375 57.8657 295.256 57.9548C295.138 57.9845 295.078 58.0737 295.019 58.1331C294.959 58.1926 294.9 58.3412 294.9 58.5195C294.87 58.6978 294.841 58.995 294.811 59.322C294.781 59.6489 294.811 60.0947 294.811 60.6594V62.0265C294.811 62.3832 294.781 62.6507 294.722 62.8884C294.692 63.0965 294.603 63.2748 294.544 63.3639C294.484 63.4531 294.366 63.5423 294.217 63.6017C294.039 63.6611 293.861 63.7206 293.683 63.78C293.475 63.8097 293.297 63.8395 293.089 63.8395H292.911C292.911 63.8395 292.792 63.8395 292.762 63.7503C292.762 63.6909 292.733 63.5423 292.733 63.3045C292.733 63.0667 292.703 62.9479 292.584 62.8884C292.465 62.829 292.228 62.7695 291.842 62.7695C291.456 62.7695 291.189 62.7993 291.099 62.8884C290.981 62.9479 290.921 63.1262 290.921 63.3639V63.9286C290.921 63.9286 290.892 64.0475 290.773 64.1367C290.654 64.1961 290.535 64.2853 290.387 64.3447C290.209 64.4042 290.031 64.4636 289.823 64.523C289.615 64.5528 289.407 64.5825 289.199 64.5825H289.051C289.051 64.5825 289.021 64.5528 288.991 64.4339C288.991 64.315 288.962 64.1367 288.932 63.8395C288.932 63.5423 288.932 63.1262 288.932 62.5912V60.4216C288.932 59.53 288.932 58.787 288.962 58.2817C288.991 57.7765 289.021 57.3604 289.11 57.0929C289.17 56.8552 289.288 56.7066 289.437 56.6471C289.585 56.6174 289.763 56.6471 289.971 56.7363C290.209 56.8552 290.387 56.9146 290.535 56.974C290.684 57.0335 290.832 57.0929 290.981 57.0929C291.099 57.1226 291.218 57.1524 291.367 57.1524C291.485 57.1524 291.634 57.1524 291.812 57.1524C292.139 57.1524 292.406 57.1227 292.554 57.0335C292.703 56.974 292.881 56.8254 293.089 56.5877C293.297 56.3499 293.475 56.2608 293.683 56.2905L293.594 56.3796ZM291.426 51.773C291.664 51.773 291.842 51.7432 291.99 51.6541C292.139 51.6244 292.287 51.5352 292.376 51.4758C292.465 51.4163 292.614 51.2677 292.703 51.1191C292.94 50.8516 293.089 50.703 293.237 50.6733C293.356 50.6733 293.564 50.7922 293.861 51.0002C294.395 51.446 294.692 51.7432 294.841 51.9216C294.959 52.0999 294.959 52.2485 294.841 52.3079C294.722 52.3674 294.603 52.3971 294.455 52.3971H291.693C291.07 52.3971 290.624 52.3971 290.268 52.3971C289.912 52.3971 289.615 52.3971 289.437 52.3674C289.229 52.3674 289.08 52.3377 289.021 52.2782C288.932 52.2485 288.902 52.1593 288.873 52.0999C288.843 52.0405 288.873 51.981 288.873 51.9513C288.873 51.9216 288.991 51.8621 289.08 51.8324C289.17 51.8027 289.348 51.8324 289.585 51.8027H290.446C290.803 51.8027 291.099 51.8027 291.337 51.8027L291.426 51.773ZM291.426 54.537C291.664 54.537 291.842 54.5072 291.99 54.4181C292.139 54.3884 292.287 54.2992 292.376 54.21C292.495 54.1209 292.614 54.0317 292.703 53.8831C292.94 53.5859 293.089 53.4373 293.237 53.4076C293.356 53.4076 293.564 53.5265 293.861 53.7345C294.395 54.1803 294.692 54.4775 294.841 54.6559C294.959 54.8342 294.959 54.9531 294.841 55.0125C294.722 55.0719 294.603 55.1017 294.455 55.1017H291.693C291.07 55.1017 290.624 55.1017 290.268 55.1017C289.912 55.1017 289.615 55.1017 289.437 55.0719C289.229 55.0719 289.08 55.0422 289.021 54.9828C288.932 54.9828 288.902 54.8936 288.873 54.8342C288.873 54.7747 288.873 54.7153 288.873 54.6856C288.873 54.6856 288.991 54.6261 289.08 54.5964C289.199 54.5964 289.348 54.5964 289.585 54.5667H290.446C290.803 54.5667 291.099 54.5667 291.337 54.5667L291.426 54.537ZM291.782 47.0177C291.189 47.0177 290.743 47.0177 290.387 47.0177C290.031 47.0177 289.763 47.0177 289.555 46.988C289.377 46.988 289.229 46.9583 289.169 46.8988C289.08 46.8691 289.051 46.7799 289.021 46.7205C288.991 46.6016 289.021 46.5125 289.199 46.4827C289.377 46.4827 289.793 46.453 290.446 46.453C290.773 46.453 291.04 46.453 291.248 46.453C291.456 46.453 291.634 46.4233 291.782 46.3341C291.931 46.3044 292.05 46.2153 292.168 46.1261C292.287 46.0072 292.376 45.8883 292.495 45.7397C292.733 45.4425 292.911 45.2642 293.059 45.2642C293.208 45.2642 293.415 45.3831 293.712 45.6208C294.277 46.0964 294.603 46.4233 294.752 46.6016C294.9 46.7799 294.9 46.9285 294.781 46.988C294.662 47.0474 294.544 47.0771 294.395 47.0771H291.723L291.782 47.0177ZM290.921 61.1646C290.921 61.4618 290.981 61.6996 291.04 61.8482C291.099 62.0265 291.189 62.1157 291.307 62.1751C291.426 62.2346 291.575 62.2643 291.782 62.2643C291.961 62.2643 292.139 62.2643 292.257 62.1751C292.376 62.1454 292.465 62.0265 292.525 61.8482C292.584 61.6996 292.643 61.4618 292.643 61.1646C292.643 60.8971 292.643 60.5108 292.643 60.0353C292.643 59.5597 292.643 59.1734 292.643 58.8762C292.643 58.6087 292.584 58.3709 292.525 58.1926C292.465 58.044 292.347 57.9548 292.257 57.8657C292.139 57.8359 291.961 57.8062 291.782 57.8062C291.575 57.8062 291.396 57.8062 291.307 57.8657C291.189 57.9251 291.099 58.044 291.04 58.1926C290.981 58.3709 290.921 58.5789 290.921 58.8762C290.921 59.1734 290.892 59.5597 290.892 60.0353C290.892 60.5108 290.892 60.8971 290.921 61.1646ZM306.124 58.3115C306.124 58.579 306.124 58.787 306.153 58.9059C306.153 59.0248 306.213 59.0545 306.272 59.0248C306.302 59.0248 306.391 58.9059 306.45 58.7573C306.628 58.4898 306.777 58.3412 306.866 58.3115C306.985 58.3115 307.133 58.4303 307.371 58.6978C307.786 59.1734 308.054 59.5003 308.143 59.6786C308.232 59.8569 308.232 60.0055 308.143 60.065C308.054 60.0947 307.935 60.1244 307.786 60.1244H306.955C306.569 60.1244 306.331 60.1839 306.242 60.3027C306.153 60.4216 306.094 60.6891 306.094 61.1349V62.1454C306.094 62.502 306.094 62.829 306.005 63.1262C305.945 63.3937 305.827 63.6611 305.619 63.8692C305.263 64.2556 304.936 64.4933 304.639 64.6122C304.342 64.7311 304.105 64.7311 303.926 64.6716C303.719 64.6122 303.54 64.4933 303.422 64.3447C303.303 64.1664 303.214 63.9881 303.184 63.8097C303.125 63.5423 303.036 63.3342 302.917 63.1856C302.857 63.1262 302.768 63.0667 302.709 63.0073C302.62 62.9479 302.531 62.8884 302.412 62.829C302.026 62.6506 301.759 62.5318 301.64 62.5021C301.521 62.5021 301.462 62.4723 301.462 62.3832C301.462 62.294 301.492 62.2643 301.61 62.2643C301.729 62.2643 301.937 62.2643 302.323 62.2643C302.561 62.2643 302.768 62.2643 303.006 62.294C303.214 62.294 303.362 62.294 303.481 62.294C303.659 62.294 303.748 62.2643 303.808 62.1751C303.837 62.1157 303.867 62.0265 303.867 61.8779V60.9863C303.867 60.808 303.867 60.6594 303.778 60.5108C303.719 60.3919 303.6 60.3027 303.392 60.2433C303.184 60.1839 302.917 60.1244 302.561 60.1244C302.204 60.1244 301.729 60.1244 301.165 60.1244C300.601 60.1244 300.126 60.1244 299.77 60.1839C299.413 60.2136 299.146 60.3027 298.938 60.4216C298.76 60.5702 298.612 60.7485 298.552 61.016C298.493 61.2538 298.433 61.6104 298.433 61.9968V63.8989C298.433 63.8989 298.404 64.0475 298.285 64.1367C298.166 64.2258 298.047 64.315 297.899 64.3744C297.75 64.4339 297.543 64.4933 297.335 64.5528C297.097 64.6122 296.86 64.6419 296.652 64.6419H296.474C296.474 64.6419 296.414 64.6419 296.385 64.5825C296.385 64.523 296.355 64.4042 296.355 64.2556C296.355 64.0772 296.355 63.8692 296.355 63.572C296.355 63.2451 296.355 62.8587 296.355 62.3832C296.355 61.9076 296.355 61.4916 296.355 61.1943C296.355 60.8971 296.325 60.6594 296.266 60.5108C296.236 60.3622 296.147 60.273 296.088 60.1839C295.999 60.1541 295.91 60.1244 295.791 60.1244C295.553 60.1244 295.375 60.1244 295.316 60.065C295.227 60.065 295.167 59.9461 295.138 59.8272C295.108 59.7083 295.138 59.6489 295.167 59.5894C295.227 59.5894 295.405 59.5597 295.702 59.5597C295.85 59.5597 295.939 59.53 296.028 59.4408C296.117 59.3814 296.177 59.2328 296.236 58.995C296.266 58.7573 296.296 58.4601 296.325 58.0143C296.325 57.5982 296.325 57.0335 296.325 56.3202C296.325 55.6069 296.325 55.0719 296.355 54.6261C296.355 54.2398 296.444 53.9128 296.533 53.7345C296.592 53.5562 296.711 53.4373 296.86 53.4076C297.008 53.4076 297.186 53.4076 297.454 53.5265C297.691 53.6454 297.899 53.7048 298.077 53.7642C298.226 53.8237 298.374 53.8831 298.522 53.9128C298.641 53.9128 298.76 53.9426 298.908 53.9723C299.027 53.9723 299.176 53.9723 299.354 53.9723C299.68 53.9723 299.888 53.9426 299.977 53.8237C300.066 53.7345 300.096 53.5265 300.096 53.1996C300.096 53.0212 300.096 52.8726 300.007 52.7835C299.918 52.6943 299.829 52.6051 299.68 52.5457C299.502 52.516 299.294 52.4565 298.998 52.4268C298.671 52.4268 298.285 52.4268 297.81 52.4268C297.335 52.4268 296.919 52.4268 296.622 52.4268C296.296 52.4268 296.088 52.4268 295.939 52.3971C295.761 52.3971 295.672 52.3674 295.613 52.3079C295.553 52.3079 295.494 52.2188 295.494 52.1593C295.464 52.0405 295.494 51.9513 295.642 51.9216C295.791 51.9216 296.117 51.8918 296.682 51.8918C297.246 51.8918 297.572 51.8621 297.721 51.7433C297.869 51.6244 297.929 51.4163 297.929 51.03C297.929 50.6436 297.899 50.4058 297.78 50.3167C297.661 50.1978 297.394 50.1681 297.008 50.1681C296.622 50.1681 296.325 50.1681 296.236 50.1086C296.117 50.1086 296.058 49.9897 295.999 49.8709C295.969 49.752 295.999 49.6628 296.117 49.6331C296.236 49.6331 296.503 49.6034 296.949 49.6034C297.394 49.6034 297.661 49.5737 297.78 49.4548C297.899 49.3359 297.958 49.1279 297.958 48.7712C297.958 48.4146 297.899 48.2065 297.78 48.0876C297.661 47.9688 297.364 47.939 296.889 47.939C296.414 47.939 296.117 47.939 295.999 47.8796C295.85 47.8796 295.761 47.7607 295.731 47.6418C295.702 47.523 295.731 47.4338 295.85 47.4041C295.969 47.4041 296.296 47.3743 296.83 47.3743C297.068 47.3743 297.305 47.3743 297.454 47.3446C297.602 47.3446 297.721 47.2555 297.81 47.1663C297.899 47.0771 297.958 46.9583 297.988 46.8097C297.988 46.6611 298.018 46.4827 298.018 46.1855C298.018 45.9478 298.018 45.71 298.077 45.5614C298.077 45.4128 298.166 45.3236 298.255 45.2345C298.374 45.175 298.493 45.1156 298.701 45.1156C298.908 45.1156 299.146 45.1156 299.443 45.1156C300.066 45.175 300.452 45.2642 300.631 45.3236C300.809 45.4128 300.809 45.502 300.72 45.5911C300.601 45.6803 300.541 45.7397 300.482 45.7694C300.423 45.8289 300.363 45.8883 300.304 45.9478C300.274 46.0072 300.245 46.0666 300.215 46.1558C300.215 46.2747 300.185 46.3936 300.185 46.5422C300.185 46.8691 300.245 47.0771 300.363 47.1663C300.482 47.2555 300.749 47.2852 301.195 47.2852C301.64 47.2852 301.878 47.2257 301.996 47.0771C302.115 46.9583 302.175 46.6313 302.175 46.1261C302.175 45.8883 302.175 45.6506 302.234 45.502C302.234 45.3534 302.353 45.2642 302.442 45.175C302.561 45.1156 302.679 45.0562 302.887 45.0562C303.065 45.0562 303.333 45.0562 303.629 45.0859C304.283 45.1453 304.669 45.2048 304.877 45.2642C305.055 45.3534 305.055 45.4425 304.936 45.5317C304.817 45.6208 304.758 45.6803 304.698 45.71C304.639 45.7694 304.58 45.8289 304.52 45.8883C304.491 45.9478 304.461 46.0072 304.431 46.0964C304.431 46.2153 304.401 46.3341 304.401 46.4827C304.401 46.8097 304.401 47.0177 304.461 47.1069C304.461 47.196 304.58 47.2257 304.698 47.2257C304.817 47.2257 304.936 47.196 305.055 47.1069C305.144 47.0474 305.292 46.8691 305.5 46.5719C305.678 46.3044 305.856 46.1558 306.005 46.1261C306.124 46.1261 306.331 46.245 306.599 46.453C307.074 46.8988 307.4 47.196 307.519 47.3446C307.638 47.5229 307.638 47.6715 307.519 47.731C307.4 47.7904 307.282 47.8202 307.133 47.8202H305.738C305.441 47.8202 305.203 47.8202 305.025 47.8202C304.847 47.8202 304.698 47.8796 304.609 47.939C304.491 47.9985 304.431 48.0579 304.431 48.1768C304.401 48.2957 304.372 48.4146 304.372 48.6226C304.372 48.9793 304.372 49.1873 304.431 49.3062C304.431 49.4251 304.55 49.4548 304.639 49.4548C304.728 49.4548 304.847 49.4251 304.966 49.3359C305.055 49.2765 305.203 49.0981 305.381 48.8009C305.559 48.5037 305.738 48.4146 305.856 48.3848C305.975 48.3848 306.183 48.5037 306.42 48.7118C306.896 49.0981 307.192 49.3953 307.311 49.5737C307.43 49.752 307.43 49.8709 307.311 49.9303C307.192 49.9897 307.103 50.0195 306.955 50.0195H305.649C305.084 50.0195 304.728 50.0492 304.58 50.1681C304.431 50.2869 304.342 50.495 304.342 50.8814C304.342 51.2677 304.342 51.5055 304.431 51.5947C304.52 51.6838 304.609 51.7433 304.847 51.7433C305.055 51.7433 305.233 51.7135 305.322 51.6244C305.441 51.5649 305.589 51.3866 305.827 51.0597C306.035 50.7625 306.213 50.6139 306.361 50.5842C306.48 50.5842 306.688 50.703 306.985 50.9111C307.519 51.3866 307.816 51.6838 307.964 51.8621C308.083 52.0405 308.083 52.1891 307.964 52.2485C307.846 52.3079 307.757 52.3377 307.608 52.3377H304.966C304.372 52.3377 303.926 52.3377 303.57 52.3377C303.214 52.3377 302.947 52.3971 302.768 52.4565C302.59 52.516 302.442 52.5754 302.382 52.6943C302.323 52.8132 302.264 52.9321 302.264 53.1104C302.264 53.4373 302.293 53.6454 302.382 53.7345C302.471 53.8534 302.679 53.8831 303.006 53.8831C303.333 53.8831 303.54 53.8534 303.689 53.7642C303.837 53.7048 304.015 53.5265 304.223 53.2887C304.342 53.1698 304.431 53.1104 304.55 53.051C304.639 52.9915 304.728 52.9618 304.847 52.9915C304.966 52.9915 305.084 53.0509 305.263 53.1698C305.411 53.2887 305.619 53.4076 305.886 53.5859C306.361 53.9723 306.658 54.21 306.777 54.3587C306.896 54.5073 306.866 54.5964 306.717 54.6856C306.599 54.7153 306.539 54.8045 306.48 54.8639C306.421 54.9531 306.361 55.0719 306.331 55.2205C306.302 55.3989 306.272 55.6069 306.242 55.9041C306.242 56.2013 306.242 56.5877 306.242 57.0632C306.242 57.5387 306.242 57.9548 306.242 58.2223L306.124 58.3115ZM299.918 54.7747C299.918 54.7747 299.591 54.5964 299.235 54.5964C298.879 54.5964 298.671 54.6559 298.582 54.7747C298.463 54.8936 298.433 55.1908 298.433 55.6366C298.433 56.1122 298.463 56.3796 298.582 56.5282C298.671 56.6471 298.879 56.7066 299.235 56.7066C299.591 56.7066 299.799 56.6471 299.918 56.5282C300.007 56.4094 300.037 56.1122 300.037 55.6366C300.037 55.1611 300.007 54.8936 299.918 54.7747ZM298.582 57.509C298.582 57.509 298.433 57.9251 298.433 58.4006C298.433 58.8762 298.463 59.2031 298.582 59.322C298.671 59.4408 298.879 59.5003 299.235 59.5003C299.591 59.5003 299.799 59.4408 299.918 59.322C300.007 59.2031 300.037 58.8762 300.037 58.4006C300.037 57.9251 300.007 57.6279 299.918 57.509C299.799 57.3901 299.591 57.3307 299.235 57.3307C298.879 57.3307 298.671 57.3901 298.582 57.509ZM300.215 48.0282C300.215 48.0282 300.037 48.3551 300.037 48.7118C300.037 49.0684 300.096 49.2765 300.215 49.3953C300.334 49.5142 300.601 49.5439 301.046 49.5439C301.492 49.5439 301.729 49.5142 301.848 49.3953C301.967 49.2765 302.026 49.0684 302.026 48.7118C302.026 48.3551 301.967 48.1471 301.848 48.0282C301.729 47.9093 301.462 47.8796 301.046 47.8796C300.631 47.8796 300.334 47.9093 300.215 48.0282ZM300.215 50.2572C300.215 50.2572 300.037 50.5842 300.037 50.9705C300.037 51.3569 300.096 51.5946 300.215 51.6838C300.334 51.8027 300.601 51.8324 301.046 51.8324C301.492 51.8324 301.729 51.8027 301.848 51.6838C301.967 51.5649 302.026 51.3569 302.026 50.9705C302.026 50.5842 301.967 50.3464 301.848 50.2572C301.729 50.1383 301.462 50.1086 301.046 50.1086C300.631 50.1086 300.334 50.1383 300.215 50.2572ZM303.689 54.7747C303.689 54.7747 303.362 54.5964 303.006 54.5964C302.65 54.5964 302.412 54.6559 302.323 54.7747C302.204 54.8936 302.175 55.1908 302.175 55.6366C302.175 56.1122 302.204 56.3796 302.323 56.5282C302.442 56.6471 302.65 56.7066 303.006 56.7066C303.362 56.7066 303.57 56.6471 303.689 56.5282C303.808 56.4094 303.837 56.1122 303.837 55.6366C303.837 55.1611 303.808 54.8936 303.689 54.7747ZM302.323 59.3517C302.323 59.3517 302.65 59.53 303.006 59.53C303.362 59.53 303.57 59.4706 303.689 59.3517C303.808 59.2328 303.837 58.9059 303.837 58.4303C303.837 57.9548 303.808 57.6576 303.689 57.5387C303.57 57.4199 303.362 57.3604 303.006 57.3604C302.65 57.3604 302.412 57.4199 302.323 57.5387C302.204 57.6576 302.175 57.9548 302.175 58.4303C302.175 58.9059 302.204 59.2328 302.323 59.3517Z" fill="#080304"/>
<path d="M316.159 51.5647C316.159 51.3864 316.159 51.2378 316.1 51.1486C316.041 51.0595 315.981 51.0298 315.862 51.0595C315.714 51.0892 315.536 51.2081 315.269 51.3567C315.031 51.535 314.675 51.7431 314.259 52.0403C313.665 52.4563 313.22 52.7833 312.864 53.0508C312.507 53.3182 312.21 53.5263 312.002 53.6749C311.795 53.8532 311.646 53.9721 311.557 54.0612C311.438 54.1504 311.379 54.2098 311.349 54.2693C311.23 54.3882 311.112 54.3882 310.993 54.2396C310.874 54.1207 310.666 53.764 310.369 53.2588C310.221 53.021 310.162 52.7833 310.132 52.6347C310.102 52.4861 310.132 52.3077 310.31 52.1889C310.458 52.07 310.696 51.9511 311.023 51.8322C311.349 51.7133 311.795 51.5944 312.359 51.4458C313.19 51.2378 313.843 51.0595 314.348 50.9406C314.823 50.8217 315.209 50.7028 315.476 50.6434C315.744 50.584 315.922 50.5245 316.011 50.4948C316.1 50.4948 316.13 50.4948 316.13 50.4948V48.8007C316.13 48.4144 316.13 48.0874 316.041 47.8497C315.951 47.6119 315.833 47.4633 315.655 47.3147C315.447 47.1958 315.15 47.1067 314.793 47.0769C314.407 47.0472 313.903 47.0175 313.309 47.0175C312.715 47.0175 312.181 47.0175 311.824 47.0175C311.438 47.0175 311.141 47.0175 310.934 46.9878C310.726 46.9878 310.577 46.9581 310.518 46.8986C310.429 46.8689 310.399 46.7797 310.369 46.7203C310.369 46.6609 310.369 46.6014 310.399 46.5717C310.458 46.542 310.577 46.4825 310.785 46.4528C310.963 46.4528 311.26 46.4528 311.616 46.4231H313.101C313.725 46.4231 314.2 46.4231 314.586 46.4231C314.972 46.4231 315.269 46.3934 315.506 46.3339C315.744 46.3042 315.892 46.215 316.041 46.1556C316.159 46.0962 316.278 45.9773 316.397 45.8584C316.516 45.7395 316.575 45.6504 316.694 45.5909C316.783 45.5315 316.872 45.5018 317.02 45.5315C317.139 45.5315 317.288 45.5909 317.436 45.7098C317.585 45.8287 317.792 45.9476 318.06 46.1556C318.564 46.542 318.891 46.7797 318.98 46.9283C319.099 47.0769 319.039 47.1661 318.891 47.2553C318.772 47.3147 318.683 47.4039 318.624 47.493C318.564 47.5822 318.505 47.7308 318.446 47.9091C318.416 48.0874 318.386 48.3846 318.357 48.7413C318.357 49.0979 318.357 49.5735 318.357 50.1381V52.813C318.357 53.1696 318.357 53.4966 318.267 53.7938C318.208 54.0612 318.089 54.3287 317.881 54.5368C317.525 54.9231 317.228 55.1609 316.961 55.2501C316.694 55.3689 316.427 55.3987 316.248 55.3392C316.07 55.2798 315.892 55.1609 315.773 54.9826C315.655 54.8043 315.565 54.6557 315.536 54.4476C315.476 54.1801 315.387 53.9721 315.298 53.8235C315.179 53.7046 315.061 53.5857 314.823 53.4371C314.437 53.2588 314.2 53.1399 314.081 53.1102C313.962 53.1102 313.903 53.0507 313.903 52.9913C313.903 52.9319 313.932 52.8724 314.051 52.8724C314.14 52.8724 314.348 52.8724 314.675 52.9021C314.883 52.9021 315.09 52.9021 315.298 52.9319C315.476 52.9319 315.655 52.9319 315.773 52.9319C315.922 52.9319 316.011 52.9021 316.1 52.813C316.13 52.7535 316.159 52.6644 316.159 52.5455V51.6539V51.5647ZM311.824 48.028C311.706 47.8497 311.616 47.7308 311.557 47.6416C311.498 47.5525 311.438 47.493 311.438 47.4633C311.438 47.4633 311.409 47.4336 311.438 47.4039C311.468 47.3741 311.557 47.3741 311.735 47.285C311.913 47.2255 312.121 47.1661 312.388 47.1661C312.626 47.1661 312.923 47.1661 313.22 47.1661C313.517 47.1661 313.784 47.285 314.022 47.4336C314.259 47.5822 314.467 47.82 314.615 48.1469C314.764 48.4738 314.793 48.8899 314.793 49.4843C314.793 49.9301 314.645 50.1679 314.467 50.257C314.289 50.3462 314.051 50.3165 313.784 50.1976C313.517 50.0787 313.25 49.8707 312.982 49.5735C312.715 49.2763 312.478 49.0088 312.299 48.7116C312.121 48.4144 311.973 48.1766 311.884 48.028H311.824ZM326.284 45.5018C326.284 45.5018 326.492 45.4126 326.611 45.4423C326.73 45.4423 326.848 45.5315 327.027 45.6206C327.175 45.7395 327.383 45.8584 327.65 46.0367C328.155 46.4231 328.481 46.6906 328.571 46.8392C328.689 46.9878 328.63 47.0769 328.481 47.1661C328.363 47.2255 328.274 47.285 328.214 47.3741C328.155 47.493 328.095 47.6119 328.036 47.82C328.006 47.9983 327.977 48.2955 327.947 48.6224C327.947 48.9791 327.947 49.4546 327.947 50.0193V52.6941C327.947 53.0507 327.947 53.3777 327.858 53.6749C327.799 53.9721 327.68 54.2098 327.472 54.4179C327.116 54.8043 326.789 55.042 326.492 55.1609C326.225 55.2798 325.958 55.3095 325.78 55.2501C325.572 55.1906 325.393 55.0717 325.304 54.8934C325.186 54.7151 325.097 54.5368 325.067 54.3585C325.008 54.091 324.918 53.8829 324.8 53.7343L324.592 53.5263C324.592 53.5263 324.414 53.3777 324.325 53.3182C323.939 53.1102 323.701 52.9913 323.582 52.9913C323.464 52.9913 323.404 52.9616 323.404 52.8724C323.404 52.7833 323.434 52.7535 323.553 52.7535C323.642 52.7535 323.85 52.7535 324.206 52.7833C324.414 52.7833 324.622 52.7833 324.829 52.813C325.037 52.813 325.215 52.813 325.304 52.813C325.453 52.813 325.542 52.7833 325.631 52.6941C325.661 52.6347 325.69 52.5158 325.69 52.3969V51.4161C325.69 51.2081 325.69 51.0595 325.631 50.9406C325.572 50.8217 325.512 50.8217 325.393 50.8217C325.275 50.8217 325.067 50.9406 324.859 51.0892C324.622 51.2675 324.265 51.4756 323.879 51.7728C323.285 52.1591 322.84 52.5158 322.484 52.7535C322.127 53.021 321.86 53.2291 321.652 53.3777C321.444 53.5263 321.326 53.6452 321.237 53.7046C321.148 53.7938 321.088 53.8532 321.058 53.9126C320.999 54.0315 320.969 54.0612 320.999 54.091C320.999 54.091 321.148 54.1504 321.326 54.1801C321.504 54.2098 321.652 54.299 321.712 54.3585C321.741 54.4476 321.712 54.5368 321.534 54.6557C321.415 54.7151 321.326 54.7745 321.237 54.8043C321.118 54.834 321.058 54.8934 320.94 54.9231C320.821 54.9529 320.732 55.042 320.613 55.1015C320.494 55.1609 320.346 55.2798 320.168 55.3987C319.782 55.6661 319.663 55.8742 319.782 55.9336C319.9 55.9931 320.376 56.0525 321.207 56.0525C321.593 56.0525 321.949 56.0525 322.216 56.0525C322.484 56.0525 322.692 56.0228 322.899 55.9634C323.078 55.9336 323.226 55.8445 323.345 55.785C323.464 55.6959 323.582 55.6067 323.701 55.4581C323.82 55.3392 323.939 55.2203 324.028 55.1609C324.146 55.1015 324.236 55.0717 324.354 55.1015C324.473 55.1015 324.622 55.1906 324.8 55.2798C324.978 55.3987 325.186 55.5175 325.453 55.7256C325.958 56.112 326.284 56.3794 326.373 56.528C326.492 56.6766 326.492 56.7955 326.344 56.8847C326.225 56.9441 326.166 57.0333 326.106 57.1224C326.047 57.2413 325.987 57.4197 325.928 57.6574C325.898 57.8952 325.869 58.2815 325.839 58.6976C325.839 59.1434 325.839 59.7378 325.839 60.4809C325.839 61.2239 325.839 61.848 325.839 62.3235C325.839 62.799 325.809 63.1854 325.75 63.4529C325.69 63.7204 325.631 63.9284 325.512 64.077C325.393 64.1959 325.275 64.2554 325.126 64.3148C324.918 64.3742 324.681 64.4337 324.443 64.4931C324.206 64.5228 323.968 64.5526 323.79 64.5526H323.582C323.582 64.5526 323.434 64.5228 323.404 64.4337C323.404 64.3445 323.374 64.1662 323.374 63.8987C323.374 63.7501 323.345 63.6312 323.256 63.5421C323.167 63.4529 323.018 63.3935 322.721 63.3637C322.454 63.3043 322.068 63.2746 321.593 63.2449C321.088 63.2449 320.435 63.2449 319.604 63.2449C318.772 63.2449 318.119 63.2449 317.644 63.2449C317.139 63.2449 316.753 63.2449 316.486 63.2746C316.219 63.2746 316.041 63.3043 315.951 63.3637C315.862 63.3637 315.833 63.4529 315.833 63.5123V63.7798C315.833 63.7798 315.773 63.9284 315.655 64.0176C315.536 64.1068 315.358 64.1959 315.179 64.2554C315.001 64.3445 314.764 64.404 314.526 64.4634C314.289 64.5228 314.022 64.5526 313.784 64.5526H313.606C313.606 64.5526 313.546 64.4931 313.517 64.3742C313.517 64.2554 313.487 64.0473 313.457 63.6907C313.428 63.334 313.457 62.8585 313.457 62.2344C313.457 61.6102 313.457 60.7483 313.457 59.7378C313.457 58.7274 313.457 57.8655 313.487 57.2413C313.517 56.6172 313.576 56.1714 313.665 55.8445C313.754 55.5473 313.873 55.3689 314.051 55.3392C314.229 55.3095 314.437 55.3392 314.734 55.4581C315.031 55.577 315.269 55.6661 315.447 55.7256C315.625 55.785 315.833 55.8445 315.981 55.8742C316.159 55.9039 316.308 55.9336 316.486 55.9634C316.664 55.9931 316.842 55.9634 317.08 55.9634C317.317 55.9634 317.495 55.9634 317.644 55.9336C317.792 55.9336 317.881 55.8445 317.971 55.7553C318.06 55.6959 318.119 55.577 318.178 55.4284C318.208 55.2798 318.267 55.0717 318.297 54.8043C318.297 54.5665 318.357 54.3287 318.416 54.1801C318.446 54.0315 318.535 53.9424 318.624 53.8532C318.713 53.7938 318.832 53.7343 318.98 53.7343C319.129 53.7343 319.307 53.7343 319.574 53.7938C320.049 53.8829 320.316 53.8532 320.376 53.764C320.435 53.6452 320.316 53.348 320.019 52.8427C319.871 52.6049 319.782 52.3969 319.752 52.2186C319.752 52.07 319.752 51.9214 319.93 51.8025C320.079 51.6836 320.316 51.5647 320.643 51.4458C320.969 51.327 321.415 51.2081 321.979 51.0595C322.81 50.8514 323.464 50.6731 323.968 50.5542C324.443 50.4354 324.829 50.3165 325.097 50.257C325.364 50.1976 325.542 50.1381 325.631 50.1381C325.72 50.1381 325.75 50.1381 325.75 50.1381V48.5332C325.75 48.1766 325.72 47.8794 325.631 47.6416C325.572 47.4336 325.423 47.2553 325.245 47.1364C325.037 47.0175 324.74 46.9581 324.354 46.8986C323.968 46.8689 323.464 46.8392 322.84 46.8392C322.216 46.8392 321.712 46.8392 321.326 46.8392C320.94 46.8392 320.643 46.8392 320.435 46.8095C320.197 46.8095 320.049 46.7797 319.99 46.7203C319.9 46.6906 319.871 46.6014 319.841 46.542C319.841 46.4825 319.841 46.4231 319.871 46.3934C319.93 46.3637 320.049 46.3042 320.257 46.2745C320.435 46.2745 320.732 46.2745 321.118 46.2448H322.632C323.256 46.2448 323.76 46.2448 324.176 46.2448C324.562 46.2448 324.889 46.215 325.126 46.1556C325.364 46.1259 325.542 46.0367 325.69 45.9773C325.839 45.9178 325.958 45.799 326.076 45.6801C326.195 45.5612 326.255 45.472 326.373 45.4126L326.284 45.5018ZM323.137 57.3008C323.048 57.1225 322.899 57.0036 322.602 56.9144C322.335 56.7955 321.949 56.7361 321.474 56.7361C320.969 56.7361 320.316 56.7064 319.485 56.7064C318.653 56.7064 318 56.7064 317.525 56.7361C317.02 56.7361 316.634 56.8252 316.367 56.9144C316.1 57.0333 315.922 57.1522 315.833 57.3008C315.744 57.4494 315.714 57.6871 315.714 57.9843C315.714 58.2815 315.744 58.5193 315.833 58.6679C315.922 58.8165 316.07 58.9651 316.367 59.0543C316.634 59.1732 317.02 59.2326 317.525 59.2326C318 59.2326 318.653 59.2623 319.485 59.2623C320.316 59.2623 320.969 59.2623 321.474 59.2326C321.949 59.2326 322.335 59.1434 322.602 59.0543C322.87 58.9354 323.048 58.8165 323.137 58.6679C323.226 58.4896 323.256 58.2815 323.256 57.9843C323.256 57.7169 323.226 57.4791 323.137 57.3008ZM315.862 61.9966C315.951 62.1749 316.1 62.3235 316.397 62.383C316.664 62.5018 317.05 62.5613 317.555 62.5613C318.03 62.591 318.683 62.6207 319.515 62.6207C320.346 62.6207 320.999 62.6207 321.504 62.5613C321.979 62.5613 322.365 62.4721 322.632 62.383C322.899 62.2938 323.078 62.1749 323.167 61.9966C323.256 61.8183 323.285 61.5805 323.285 61.2536C323.285 60.9564 323.256 60.7186 323.167 60.5403C323.078 60.362 322.929 60.2134 322.632 60.1242C322.365 60.0351 321.979 59.9756 321.504 59.9459C320.999 59.9459 320.346 59.9162 319.515 59.9162C318.683 59.9162 318.03 59.9162 317.555 59.9459C317.05 59.9756 316.664 60.0648 316.397 60.1242C316.13 60.2431 315.951 60.362 315.862 60.5403C315.773 60.7186 315.744 60.9564 315.744 61.2536C315.744 61.5805 315.773 61.7886 315.862 61.9966ZM320.851 47.9983C320.851 47.9983 320.613 47.7308 320.554 47.6416C320.465 47.5525 320.435 47.493 320.405 47.4633C320.376 47.4336 320.376 47.4039 320.405 47.3741C320.405 47.3741 320.524 47.3444 320.702 47.2553C320.88 47.1958 321.088 47.1364 321.355 47.0769C321.593 47.0472 321.89 47.0175 322.187 47.0472C322.484 47.0769 322.751 47.1661 323.018 47.285C323.285 47.4039 323.493 47.6713 323.642 47.9686C323.79 48.2955 323.879 48.7413 323.85 49.306C323.85 49.7518 323.731 49.9895 323.553 50.0787C323.374 50.1976 323.137 50.1679 322.87 50.049C322.602 49.9301 322.335 49.7518 322.038 49.4843C321.771 49.2168 321.534 48.9493 321.355 48.6521C321.177 48.3549 321.029 48.1172 320.88 47.9686L320.851 47.9983Z" fill="#080304"/>
<path d="M347.959 46.8096C347.959 46.8096 348.167 46.7502 348.286 46.7799C348.405 46.7799 348.524 46.8988 348.702 46.9879C348.85 47.1068 349.058 47.2851 349.296 47.5229C349.771 47.9687 350.038 48.2659 350.127 48.4145C350.216 48.5631 350.216 48.6523 350.068 48.7117C349.949 48.7117 349.86 48.7711 349.771 48.8306C349.682 48.8603 349.592 48.9197 349.474 48.9792C349.355 49.0386 349.206 49.1278 349.028 49.2169C348.85 49.3358 348.642 49.4547 348.375 49.633C348.108 49.8114 347.87 49.96 347.692 50.0788C347.514 50.1977 347.366 50.2869 347.306 50.3463C347.217 50.4058 347.187 50.4652 347.187 50.5246C347.187 50.5841 347.217 50.6435 347.306 50.703C347.425 50.8219 347.514 50.911 347.544 50.9705C347.544 51.0596 347.544 51.1488 347.395 51.2082C347.276 51.2677 347.158 51.2974 347.009 51.2974H343.832C343.149 51.2974 342.585 51.2974 342.14 51.3568C341.694 51.4163 341.308 51.5054 340.952 51.6243C340.596 51.7432 340.269 51.9215 339.972 52.1296C339.675 52.3673 339.349 52.6645 338.963 53.0212C338.577 53.3481 338.31 53.6453 338.161 53.8236C338.013 54.0317 337.983 54.1803 338.131 54.2694C338.25 54.3883 338.517 54.418 338.933 54.418C339.349 54.418 339.913 54.418 340.685 54.3586C341.516 54.3289 342.169 54.2694 342.674 54.21C343.149 54.1505 343.506 54.0911 343.684 53.9722C343.862 53.8831 343.951 53.7642 343.892 53.6156C343.832 53.467 343.684 53.2887 343.446 53.0806C343.001 52.6645 342.734 52.397 342.615 52.2782C342.496 52.1593 342.466 52.0998 342.496 52.0701C342.496 52.0701 342.615 52.0107 342.823 51.8918C343.031 51.7729 343.298 51.7135 343.654 51.654C344.01 51.5946 344.367 51.5946 344.782 51.6243C345.168 51.654 345.614 51.8026 346.029 52.0404C346.445 52.2782 346.861 52.6645 347.247 53.1698C347.633 53.7047 347.959 54.418 348.227 55.3096C348.375 55.7852 348.345 56.1121 348.197 56.2904C348.019 56.4687 347.811 56.5876 347.514 56.5579C347.187 56.5579 346.89 56.4687 346.564 56.3201C346.237 56.1715 346 55.9932 345.822 55.7554C345.643 55.5177 345.436 55.3096 345.198 55.1908C344.961 55.0719 344.664 55.0124 344.278 55.0124C343.892 55.0124 343.387 55.1016 342.734 55.1908C342.08 55.3096 341.249 55.4582 340.239 55.6663C338.874 55.9338 337.775 56.1715 336.973 56.3499C336.142 56.5282 335.489 56.6471 335.043 56.7362C334.568 56.8551 334.242 56.9145 334.064 56.974C333.885 57.0334 333.737 57.0929 333.678 57.1523C333.559 57.2712 333.44 57.2117 333.321 57.0631C333.203 56.9145 333.054 56.5282 332.817 55.9635C332.698 55.696 332.609 55.4582 332.579 55.2799C332.579 55.1016 332.579 54.9827 332.668 54.8936C332.727 54.7747 332.876 54.7152 333.084 54.7152C333.262 54.7152 333.559 54.6855 333.915 54.6558C334.39 54.6558 334.746 54.6261 335.073 54.5666C335.4 54.5369 335.637 54.4477 335.845 54.3289C336.053 54.21 336.231 54.0614 336.38 53.8236C336.528 53.6156 336.647 53.3481 336.795 52.9914C336.944 52.6348 337.033 52.3673 337.092 52.1296C337.092 51.9215 337.092 51.7432 337.003 51.6243C336.914 51.5054 336.766 51.446 336.528 51.3865C336.29 51.3568 335.994 51.3271 335.578 51.3271C335.162 51.3271 334.836 51.3271 334.598 51.3271C334.361 51.3271 334.182 51.3271 334.064 51.2974C333.915 51.2974 333.826 51.2677 333.767 51.2082C333.707 51.1785 333.678 51.0893 333.648 51.0299C333.648 50.9705 333.678 50.911 333.796 50.8813C333.915 50.8516 334.123 50.7921 334.479 50.7624C334.836 50.7624 335.34 50.7624 336.023 50.7327H338.725C339.854 50.7327 340.715 50.7327 341.427 50.703C342.11 50.703 342.674 50.6733 343.09 50.5841C343.476 50.5544 343.803 50.4652 344.01 50.3463C344.189 50.2274 344.367 50.1086 344.515 49.96C344.782 49.633 344.99 49.425 345.109 49.3656C345.228 49.3061 345.347 49.3656 345.554 49.4547C345.94 49.7519 346.178 49.8708 346.326 49.8411C346.475 49.8411 346.594 49.633 346.712 49.2169C346.772 49.0386 346.712 48.89 346.623 48.7711C346.504 48.6523 346.208 48.5631 345.762 48.5037C345.317 48.4442 344.664 48.3848 343.803 48.3848C342.941 48.3848 341.813 48.3848 340.388 48.3848C338.963 48.3848 337.834 48.3848 337.033 48.4442C336.201 48.5037 335.548 48.5928 335.073 48.7117C334.598 48.8306 334.271 49.0089 334.093 49.2467C333.915 49.4844 333.737 49.7519 333.589 50.1086C333.41 50.5544 333.143 50.911 332.817 51.1488C332.668 51.2677 332.49 51.3568 332.312 51.3865C332.134 51.4163 331.926 51.4163 331.718 51.3865C331.243 51.2974 330.976 51.0893 330.827 50.7624C330.679 50.4355 330.708 50.1086 330.916 49.7222C331.065 49.4547 331.302 49.2467 331.659 49.0386C332.045 48.8009 332.371 48.4145 332.638 47.939C332.817 47.612 332.965 47.3446 333.024 47.1365C333.084 46.9582 333.143 46.7799 333.143 46.661C333.143 46.5421 333.143 46.4529 333.143 46.3935C333.143 46.3638 333.143 46.3341 333.173 46.3341C333.232 46.3341 333.292 46.3638 333.351 46.4529C333.381 46.5421 333.47 46.7502 333.559 47.0771C333.589 47.2257 333.678 47.3446 333.737 47.4337C333.826 47.5526 333.975 47.612 334.153 47.6418C334.331 47.7012 334.628 47.7309 334.984 47.7606C335.311 47.7606 335.786 47.7606 336.38 47.7606C336.973 47.7606 337.419 47.7606 337.775 47.7012C338.102 47.7012 338.399 47.612 338.577 47.5229C338.755 47.4337 338.903 47.2851 338.963 47.0771C339.022 46.8988 339.052 46.661 339.052 46.3341C339.052 46.0369 339.052 45.7991 339.111 45.5911C339.111 45.4127 339.23 45.2641 339.349 45.175C339.468 45.0858 339.616 45.0561 339.854 45.0264C340.061 45.0264 340.358 45.0264 340.715 45.0264C341.457 45.0858 341.902 45.1453 342.11 45.2047C342.288 45.2939 342.348 45.383 342.199 45.5316C342.08 45.6208 342.021 45.6802 341.962 45.7397C341.873 45.7991 341.813 45.8585 341.783 45.918C341.724 46.0071 341.694 46.0963 341.665 46.2152C341.665 46.3341 341.635 46.5124 341.635 46.7204C341.635 46.9582 341.665 47.1068 341.754 47.2554C341.813 47.404 341.932 47.4932 342.11 47.5823C342.288 47.6715 342.555 47.7012 342.912 47.7012C343.238 47.7012 343.713 47.7309 344.278 47.7309C344.842 47.7309 345.317 47.7309 345.673 47.7309C346.029 47.7309 346.326 47.7012 346.564 47.6418C346.801 47.612 346.95 47.5229 347.098 47.4634C347.247 47.3743 347.366 47.2851 347.514 47.1365C347.633 47.0176 347.781 46.9285 347.87 46.869L347.959 46.8096ZM345.376 63.3639C345.703 63.3639 345.97 63.3044 346.208 63.245C346.415 63.1856 346.594 63.1261 346.742 63.0072C346.89 62.8884 347.009 62.7695 347.158 62.5614C347.425 62.2048 347.662 62.0265 347.841 62.0265C348.019 62.0265 348.286 62.1453 348.642 62.4128C349.325 62.9478 349.741 63.3044 349.919 63.5125C350.097 63.6908 350.097 63.8394 349.978 63.8988C349.86 63.9583 349.741 63.988 349.592 63.988H335.518C334.301 63.988 333.351 63.988 332.698 63.9583C332.015 63.9583 331.569 63.8988 331.362 63.8394C331.124 63.8097 331.035 63.7502 331.005 63.6908C331.005 63.6314 331.005 63.5719 331.124 63.5125C331.213 63.4828 331.391 63.453 331.688 63.4233C331.955 63.4233 332.371 63.3936 332.935 63.3936C333.47 63.3936 334.182 63.3936 335.103 63.3936C336.023 63.3936 336.706 63.3936 337.27 63.3342C337.805 63.3044 338.25 63.2153 338.517 63.0964C338.814 62.9775 338.992 62.7992 339.111 62.5614C339.23 62.3237 339.26 62.0265 339.26 61.6401C339.26 61.2537 339.23 60.9268 339.141 60.689C339.082 60.4513 338.933 60.3027 338.696 60.1541C338.458 60.0352 338.161 59.946 337.745 59.9163C337.33 59.8866 336.766 59.8569 336.112 59.8569C335.459 59.8569 334.895 59.8569 334.509 59.8569C334.093 59.8569 333.767 59.8569 333.529 59.8271C333.292 59.8271 333.143 59.7974 333.054 59.738C332.965 59.7083 332.935 59.6191 332.906 59.5597C332.876 59.5002 332.906 59.4408 332.995 59.4111C333.054 59.3813 333.173 59.3219 333.41 59.2922C333.618 59.2922 333.945 59.2922 334.361 59.2625H336.053C336.736 59.2625 337.3 59.2625 337.745 59.203C338.161 59.203 338.488 59.0841 338.725 58.995C338.963 58.8761 339.111 58.7572 339.2 58.5492C339.26 58.3708 339.319 58.0736 339.319 57.7467C339.319 57.4198 339.319 57.1523 339.378 56.974C339.378 56.7957 339.497 56.6471 339.616 56.5579C339.735 56.439 339.883 56.3796 340.121 56.3796C340.329 56.3796 340.625 56.3796 340.982 56.3796C341.694 56.439 342.169 56.5282 342.348 56.5876C342.526 56.6768 342.585 56.7659 342.437 56.9145C342.318 57.0037 342.259 57.0631 342.169 57.1226C342.11 57.182 342.051 57.2415 341.991 57.3306C341.932 57.4198 341.902 57.509 341.873 57.6576C341.873 57.7764 341.843 57.9845 341.843 58.1925C341.843 58.4006 341.843 58.6086 341.902 58.7572C341.902 58.9058 342.021 58.995 342.11 59.0841C342.199 59.1733 342.377 59.203 342.585 59.2327C342.793 59.2327 343.06 59.2625 343.417 59.2625C343.743 59.2625 344.04 59.2625 344.248 59.2327C344.485 59.2327 344.664 59.203 344.812 59.1139C344.961 59.0544 345.109 58.995 345.228 58.8761C345.347 58.7572 345.465 58.6383 345.614 58.46C345.881 58.1331 346.118 57.925 346.297 57.925C346.475 57.925 346.742 58.0439 347.098 58.3114C347.752 58.8167 348.138 59.1733 348.316 59.3516C348.464 59.5597 348.494 59.7083 348.375 59.7677C348.256 59.8271 348.138 59.8569 347.989 59.8569H344.901C344.218 59.8569 343.684 59.8569 343.268 59.9163C342.882 59.946 342.555 60.0352 342.348 60.1541C342.11 60.273 341.962 60.4513 341.902 60.689C341.843 60.9268 341.783 61.224 341.783 61.6401C341.783 62.0562 341.783 62.3237 341.873 62.5614C341.932 62.7992 342.051 62.9775 342.199 63.0964C342.377 63.2153 342.585 63.3044 342.912 63.3342C343.238 63.3639 343.624 63.3936 344.159 63.3936C344.693 63.3936 345.079 63.3936 345.406 63.3936L345.376 63.3639Z" fill="#080304"/>
<path d="M241.989 94.7783H237.773V136.892H241.989V94.7783Z" fill="#E95383"/>
<path d="M241.989 90.5581H225.154V107.41H241.989V90.5581Z" fill="#E95383"/>
<path d="M250.392 132.702H246.176V187.476H250.392V132.702Z" fill="#E95383"/>
<path d="M267.227 132.702H263.011V187.476H267.227V132.702Z" fill="#E95383"/>
<path d="M267.227 132.702H237.773V136.922H267.227V132.702Z" fill="#E95383"/>
<path d="M296.681 183.227H246.176V187.447H296.681V183.227Z" fill="#E95383"/>
<path d="M296.682 183.227H288.279V301.187H296.682V183.227Z" fill="#E95383"/>
<path d="M325.097 293.816H259.864V333.82H325.097V293.816Z" fill="#FDD23E"/>
<path d="M324.028 294.856V332.78H260.903V294.856H324.028ZM326.136 292.746H258.795V334.86H326.136V292.746Z" fill="#080304"/>
<path d="M286.646 321.932C286.913 321.932 287.15 321.843 287.329 321.783C287.507 321.724 287.685 321.605 287.833 321.486C287.982 321.367 288.13 321.189 288.308 320.981C288.487 320.803 288.635 320.624 288.754 320.505C288.873 320.386 288.991 320.327 289.11 320.327C289.229 320.327 289.377 320.327 289.526 320.416C289.674 320.505 289.852 320.624 290.06 320.803C290.446 321.1 290.773 321.338 291.01 321.546C291.248 321.754 291.396 321.932 291.515 322.051C291.634 322.17 291.693 322.289 291.693 322.348C291.693 322.407 291.693 322.467 291.604 322.497C291.485 322.556 291.367 322.586 291.218 322.586H276.788C275.541 322.586 274.591 322.586 273.908 322.556C273.225 322.556 272.78 322.497 272.542 322.437C272.304 322.407 272.186 322.348 272.156 322.289C272.126 322.14 272.156 322.051 272.334 322.051C272.512 322.021 272.928 321.991 273.581 321.991C273.908 321.991 274.175 321.932 274.383 321.813C274.561 321.694 274.739 321.427 274.858 321.04C274.977 320.654 275.036 320.089 275.066 319.376C275.066 318.663 275.096 317.712 275.096 316.523C275.096 315.334 275.096 314.383 275.155 313.67C275.185 312.956 275.274 312.421 275.392 312.035C275.511 311.649 275.66 311.411 275.897 311.292C276.135 311.173 276.432 311.173 276.788 311.173C277.53 311.233 278.005 311.322 278.213 311.381C278.391 311.47 278.451 311.559 278.302 311.708C278.183 311.797 278.124 311.916 278.065 312.065C277.976 312.213 277.916 312.481 277.887 312.837C277.827 313.194 277.797 313.699 277.768 314.353C277.768 315.007 277.738 315.899 277.738 316.969C277.738 318.039 277.738 318.96 277.797 319.584C277.797 320.268 277.916 320.773 278.005 321.129C278.124 321.486 278.273 321.724 278.48 321.813C278.688 321.932 278.955 321.991 279.312 321.991C279.668 321.991 279.935 321.902 280.143 321.724C280.351 321.546 280.529 321.189 280.618 320.654C280.737 320.119 280.796 319.346 280.856 318.336C280.856 317.355 280.885 316.018 280.885 314.353C280.885 312.689 280.856 311.381 280.767 310.371C280.648 309.39 280.499 308.617 280.232 308.052C279.965 307.518 279.579 307.161 279.074 306.983C278.569 306.804 277.916 306.745 277.085 306.745C276.253 306.745 275.6 306.745 275.096 306.745C274.591 306.745 274.205 306.745 273.908 306.715C273.641 306.715 273.433 306.685 273.344 306.626C273.225 306.596 273.195 306.507 273.166 306.448C273.166 306.388 273.225 306.329 273.373 306.299C273.522 306.269 273.819 306.21 274.294 306.18C274.769 306.18 275.452 306.18 276.343 306.15H279.906C281.39 306.15 282.578 306.15 283.469 306.121C284.359 306.121 285.102 306.061 285.666 306.002C286.2 305.942 286.586 305.823 286.854 305.705C287.091 305.586 287.329 305.437 287.477 305.229C287.626 305.021 287.774 304.843 287.893 304.754C288.011 304.635 288.13 304.605 288.249 304.575C288.368 304.575 288.487 304.575 288.635 304.664C288.783 304.754 288.962 304.872 289.169 305.051C289.555 305.348 289.852 305.586 290.09 305.794C290.327 306.002 290.476 306.18 290.595 306.269C290.713 306.388 290.743 306.507 290.773 306.566C290.773 306.626 290.773 306.685 290.713 306.715C290.595 306.774 290.476 306.804 290.327 306.804H286.972C286.23 306.804 285.636 306.834 285.22 306.923C284.775 307.012 284.419 307.161 284.181 307.399C283.944 307.636 283.795 307.993 283.706 308.439C283.617 308.885 283.587 309.479 283.587 310.192C283.587 310.906 283.587 311.53 283.617 311.976C283.617 312.421 283.706 312.778 283.795 313.016C283.884 313.254 284.003 313.402 284.181 313.491C284.33 313.58 284.567 313.61 284.834 313.61C285.102 313.61 285.31 313.61 285.517 313.58C285.696 313.58 285.844 313.521 285.992 313.462C286.141 313.402 286.26 313.283 286.378 313.164C286.497 313.046 286.616 312.897 286.794 312.689C286.943 312.511 287.091 312.332 287.18 312.213C287.269 312.094 287.418 312.065 287.536 312.035C287.655 312.035 287.774 312.035 287.922 312.124C288.071 312.213 288.249 312.332 288.457 312.481C288.813 312.778 289.11 313.016 289.348 313.224C289.555 313.402 289.734 313.58 289.823 313.699C289.941 313.818 289.971 313.907 290.001 313.967C290.001 314.026 290.001 314.086 289.912 314.115C289.793 314.175 289.674 314.205 289.526 314.205H286.557C285.903 314.205 285.399 314.234 285.013 314.323C284.627 314.442 284.33 314.621 284.122 314.888C283.914 315.156 283.766 315.572 283.706 316.077C283.647 316.612 283.587 317.266 283.587 318.128C283.587 318.99 283.587 319.673 283.647 320.178C283.676 320.713 283.766 321.1 283.914 321.367C284.062 321.635 284.241 321.843 284.538 321.902C284.775 322.021 285.131 322.051 285.547 322.051C285.963 322.051 286.319 322.051 286.586 322.051L286.646 321.932Z" fill="#080304"/>
<path d="M298.819 305.615C298.997 305.615 299.146 305.586 299.294 305.526C299.413 305.496 299.532 305.407 299.621 305.348C299.74 305.288 299.829 305.17 299.948 305.051C300.066 304.932 300.155 304.843 300.274 304.783C300.393 304.724 300.482 304.694 300.601 304.724C300.72 304.724 300.868 304.813 300.987 304.902C301.135 305.021 301.343 305.14 301.581 305.288C302.056 305.645 302.353 305.913 302.471 306.031C302.59 306.15 302.56 306.269 302.412 306.358C302.293 306.418 302.234 306.477 302.174 306.596C302.115 306.715 302.056 306.864 302.026 307.101C301.996 307.339 301.967 307.666 301.937 308.082C301.937 308.498 301.937 309.063 301.937 309.776C301.937 310.49 301.937 311.024 301.937 311.47C301.937 311.916 301.907 312.243 301.848 312.51C301.818 312.778 301.729 312.986 301.67 313.075C301.551 313.194 301.432 313.283 301.284 313.343C301.106 313.402 300.898 313.462 300.69 313.491C300.452 313.551 300.274 313.58 300.066 313.58H299.888C299.888 313.58 299.769 313.551 299.74 313.462C299.71 313.372 299.71 313.224 299.71 312.956C299.71 312.837 299.71 312.719 299.68 312.629C299.651 312.54 299.562 312.481 299.472 312.451C299.354 312.421 299.205 312.392 298.997 312.362C298.819 312.362 298.522 312.362 298.225 312.362C297.929 312.362 297.632 312.421 297.453 312.54C297.275 312.659 297.127 312.927 297.008 313.283C296.889 313.67 296.83 314.175 296.8 314.858C296.771 315.542 296.741 316.463 296.741 317.563V322.794C296.741 322.794 296.711 322.972 296.592 323.091C296.474 323.21 296.355 323.269 296.147 323.388C295.969 323.477 295.761 323.566 295.523 323.626C295.286 323.685 295.019 323.745 294.751 323.745H294.544C294.544 323.745 294.455 323.626 294.425 323.418C294.425 323.18 294.395 322.734 294.365 322.08C294.365 321.397 294.365 320.416 294.365 319.168C294.365 317.92 294.365 316.255 294.365 314.175C294.365 312.094 294.365 310.46 294.395 309.212C294.395 307.963 294.484 307.012 294.573 306.358C294.662 305.734 294.781 305.318 294.959 305.17C295.108 305.021 295.345 305.021 295.613 305.14C295.88 305.259 296.117 305.348 296.295 305.407C296.474 305.496 296.681 305.556 296.86 305.586C297.038 305.615 297.246 305.645 297.453 305.675C297.632 305.675 297.899 305.675 298.196 305.675C298.493 305.675 298.73 305.675 298.938 305.675L298.819 305.615ZM299.591 306.804C299.591 306.804 299.472 306.537 299.383 306.448C299.265 306.358 299.116 306.299 298.908 306.269C298.73 306.269 298.433 306.239 298.136 306.239C297.839 306.239 297.543 306.239 297.364 306.269C297.186 306.269 297.038 306.358 296.919 306.448C296.8 306.537 296.741 306.656 296.711 306.804C296.681 306.982 296.652 307.191 296.652 307.428C296.652 307.696 296.652 307.904 296.711 308.052C296.711 308.231 296.83 308.35 296.919 308.439C297.008 308.528 297.157 308.587 297.364 308.617C297.543 308.617 297.839 308.647 298.136 308.647C298.433 308.647 298.73 308.647 298.908 308.617C299.086 308.617 299.265 308.528 299.383 308.439C299.502 308.35 299.562 308.231 299.591 308.052C299.591 307.904 299.621 307.696 299.621 307.428C299.621 307.191 299.621 306.953 299.591 306.804ZM296.711 311.143C296.711 311.322 296.83 311.441 296.919 311.53C297.038 311.649 297.157 311.708 297.364 311.708C297.543 311.708 297.839 311.738 298.136 311.738C298.433 311.738 298.73 311.738 298.908 311.708C299.086 311.708 299.265 311.619 299.383 311.53C299.502 311.441 299.562 311.322 299.591 311.143C299.591 310.965 299.621 310.757 299.621 310.489C299.621 310.222 299.621 310.014 299.591 309.836C299.562 309.657 299.472 309.538 299.383 309.449C299.265 309.36 299.116 309.301 298.908 309.271C298.73 309.271 298.433 309.241 298.136 309.241C297.839 309.241 297.543 309.241 297.364 309.271C297.186 309.271 297.038 309.36 296.919 309.449C296.8 309.568 296.741 309.687 296.711 309.836C296.681 310.014 296.652 310.222 296.652 310.489C296.652 310.757 296.652 310.965 296.711 311.143ZM309.894 304.635C309.894 304.635 310.102 304.545 310.221 304.575C310.34 304.575 310.488 304.664 310.666 304.753C310.844 304.872 311.052 305.021 311.32 305.229C311.854 305.615 312.151 305.913 312.27 306.061C312.388 306.21 312.359 306.329 312.21 306.418C312.092 306.477 312.032 306.596 311.973 306.774C311.913 306.953 311.854 307.309 311.795 307.815C311.765 308.35 311.735 309.063 311.706 309.955C311.706 310.876 311.706 312.094 311.706 313.64V320.684C311.706 321.1 311.676 321.486 311.587 321.813C311.498 322.14 311.349 322.437 311.112 322.675C310.637 323.15 310.221 323.418 309.865 323.566C309.508 323.685 309.182 323.715 308.944 323.656C308.677 323.566 308.469 323.418 308.321 323.21C308.172 323.002 308.053 322.794 307.964 322.586C307.846 322.259 307.697 322.051 307.489 321.872C307.371 321.754 307.252 321.694 307.103 321.605C306.955 321.516 306.806 321.427 306.628 321.367C306.302 321.248 306.064 321.159 305.886 321.1C305.678 321.04 305.53 320.981 305.411 320.981C305.292 320.981 305.233 320.951 305.173 320.921C305.144 320.921 305.114 320.892 305.114 320.862C305.114 320.802 305.203 320.743 305.381 320.743C305.559 320.743 306.005 320.743 306.688 320.773C307.074 320.773 307.489 320.802 307.875 320.832C308.261 320.832 308.529 320.862 308.677 320.862C308.885 320.862 309.033 320.832 309.122 320.743C309.182 320.654 309.241 320.535 309.241 320.357V316.315C309.241 315.453 309.241 314.74 309.211 314.205C309.182 313.67 309.093 313.254 308.974 312.956C308.855 312.689 308.707 312.481 308.499 312.392C308.291 312.302 308.024 312.273 307.697 312.273C307.014 312.273 306.599 312.273 306.42 312.302C306.242 312.302 306.153 312.392 306.153 312.481V312.689C306.153 312.689 306.094 312.808 305.975 312.897C305.856 312.986 305.737 313.075 305.53 313.135C305.351 313.224 305.144 313.283 304.906 313.343C304.669 313.402 304.431 313.432 304.164 313.432H303.986C303.986 313.432 303.926 313.372 303.897 313.253C303.897 313.135 303.867 312.956 303.867 312.629C303.867 312.302 303.867 311.886 303.867 311.292C303.867 310.727 303.867 309.955 303.867 308.974C303.867 307.993 303.867 307.25 303.897 306.685C303.897 306.121 303.986 305.704 304.075 305.437C304.164 305.17 304.283 304.991 304.431 304.961C304.579 304.961 304.787 304.961 305.055 305.08C305.322 305.199 305.559 305.259 305.737 305.318C305.916 305.378 306.094 305.437 306.272 305.467C306.45 305.496 306.658 305.496 306.866 305.526C307.074 305.526 307.341 305.526 307.638 305.526C307.935 305.526 308.172 305.526 308.38 305.526C308.558 305.526 308.736 305.496 308.885 305.407C309.033 305.378 309.152 305.288 309.271 305.229C309.39 305.17 309.479 305.021 309.597 304.872C309.716 304.724 309.835 304.635 309.924 304.545L309.894 304.635ZM309.152 306.804C309.152 306.804 309.033 306.537 308.915 306.448C308.796 306.358 308.647 306.299 308.439 306.269C308.232 306.269 307.964 306.239 307.638 306.239C307.311 306.239 307.014 306.239 306.836 306.269C306.628 306.269 306.45 306.358 306.361 306.448C306.242 306.537 306.183 306.656 306.153 306.804C306.123 306.982 306.094 307.191 306.094 307.428C306.094 307.696 306.094 307.904 306.153 308.052C306.153 308.231 306.272 308.35 306.361 308.439C306.48 308.528 306.628 308.587 306.836 308.617C307.014 308.617 307.311 308.647 307.638 308.647C307.964 308.647 308.232 308.647 308.439 308.617C308.618 308.617 308.796 308.528 308.915 308.439C309.033 308.35 309.093 308.231 309.152 308.052C309.152 307.904 309.182 307.696 309.182 307.428C309.182 307.191 309.182 306.953 309.152 306.804ZM306.183 311.143C306.183 311.322 306.302 311.441 306.391 311.53C306.509 311.649 306.658 311.708 306.866 311.708C307.044 311.708 307.341 311.738 307.667 311.738C307.994 311.738 308.261 311.738 308.469 311.708C308.647 311.708 308.825 311.619 308.944 311.53C309.063 311.441 309.122 311.322 309.182 311.143C309.182 310.965 309.211 310.757 309.211 310.489C309.211 310.222 309.211 310.014 309.182 309.836C309.152 309.657 309.063 309.538 308.944 309.449C308.825 309.36 308.677 309.301 308.469 309.271C308.261 309.271 307.994 309.241 307.667 309.241C307.341 309.241 307.044 309.241 306.866 309.271C306.658 309.271 306.48 309.36 306.391 309.449C306.272 309.568 306.213 309.687 306.183 309.836C306.153 310.014 306.123 310.222 306.123 310.489C306.123 310.757 306.123 310.965 306.183 311.143Z" fill="#080304"/>
<path d="M225.154 108.48C219.928 108.48 215.682 104.23 215.682 98.9989C215.682 93.7681 219.928 89.5181 225.154 89.5181C230.38 89.5181 234.626 93.7681 234.626 98.9989C234.626 104.23 230.38 108.48 225.154 108.48Z" fill="#E95383"/>
<path d="M225.154 90.5584C229.786 90.5584 233.557 94.3329 233.557 98.9693C233.557 103.606 229.786 107.38 225.154 107.38C220.522 107.38 216.751 103.606 216.751 98.9693C216.751 94.3329 220.522 90.5584 225.154 90.5584ZM225.154 88.4482C219.334 88.4482 214.643 93.1738 214.643 98.9693C214.643 104.765 219.364 109.49 225.154 109.49C230.944 109.49 235.665 104.765 235.665 98.9693C235.665 93.1738 230.944 88.4482 225.154 88.4482Z" fill="#080304"/>
<path d="M225.154 103.219C227.482 103.219 229.37 101.329 229.37 98.9986C229.37 96.6678 227.482 94.7783 225.154 94.7783C222.825 94.7783 220.938 96.6678 220.938 98.9986C220.938 101.329 222.825 103.219 225.154 103.219Z" fill="#080304"/>
</g>
<defs>
<clipPath id="clip0_634_3">
<rect width="505" height="337" fill="white"/>
</clipPath>
</defs>
</svg>
